<svg width="20" height="20" viewBox="0 0 20 20" fill="none" xmlns="http://www.w3.org/2000/svg">
<g clip-path="url(#clip0_6_506)">
<path d="M18.1751 3.28494C16.8918 6.48494 13.6751 10.8349 10.9834 12.9933L9.34176 14.3099C9.13343 14.4599 8.9251 14.5933 8.69176 14.6849C8.69176 14.5349 8.68343 14.3683 8.65843 14.2099C8.56676 13.5099 8.2501 12.8599 7.69176 12.3016C7.1251 11.7349 6.43343 11.4016 5.7251 11.3099C5.55843 11.3016 5.39176 11.2849 5.2251 11.3016C5.31676 11.0433 5.45843 10.8016 5.63343 10.6016L6.93343 8.95994C9.08343 6.26827 13.4501 3.03494 16.6418 1.75994C17.1334 1.57661 17.6084 1.70994 17.9084 2.01827C18.2251 2.32661 18.3751 2.80161 18.1751 3.28494Z" stroke="#F5F5F5" stroke-width="1.5" stroke-linecap="round" stroke-linejoin="round"/>
<path d="M8.69173 14.6824C8.69173 15.5991 8.34173 16.4741 7.6834 17.1408C7.17507 17.6491 6.4834 17.9991 5.6584 18.1074L3.6084 18.3324C2.49173 18.4574 1.5334 17.5074 1.66673 16.3741L1.89173 14.3241C2.09173 12.4991 3.61673 11.3324 5.2334 11.2991C5.40007 11.2908 5.57507 11.2991 5.7334 11.3074C6.44173 11.3991 7.1334 11.7241 7.70007 12.2991C8.2584 12.8574 8.57507 13.5074 8.66673 14.2074C8.67507 14.3658 8.69173 14.5241 8.69173 14.6824V14.6824Z" stroke="#6A7B8D" stroke-width="1.5" stroke-linecap="round" stroke-linejoin="round"/>
<path opacity="0.4" d="M11.8665 12.0567C11.8665 9.88166 10.0998 8.11499 7.9248 8.11499" stroke="#F5F5F5" stroke-width="1.5" stroke-linecap="round" stroke-linejoin="round"/>
</g>
<defs>
<clipPath id="clip0_6_506">
<rect width="20" height="20" fill="white"/>
</clipPath>
</defs>
</svg>
