<svg width="52" height="52" viewBox="0 0 52 52" fill="none" xmlns="http://www.w3.org/2000/svg">
<rect width="52" height="52" rx="5" fill="#6785EF"/>
<path d="M22.7538 28.75H17.5C16.2625 28.75 15.25 29.7625 15.25 31V37.75H22.7538V28.75Z" stroke="white" stroke-width="1.5" stroke-miterlimit="10" stroke-linecap="round" stroke-linejoin="round"/>
<path d="M27.9959 24.25H24.9922C23.7547 24.25 22.7422 25.2625 22.7422 26.5V37.75H30.2459V26.5C30.2459 25.9033 30.0089 25.331 29.5869 24.909C29.165 24.4871 28.5927 24.25 27.9959 24.25ZM35.4997 32.125H30.2459V37.75H37.7497V34.375C37.7497 33.1375 36.7372 32.125 35.4997 32.125Z" stroke="white" stroke-width="1.5" stroke-miterlimit="10" stroke-linecap="round" stroke-linejoin="round"/>
<path opacity="0.4" d="M27.085 15.3287L27.6813 16.5212C27.76 16.6899 27.9738 16.8474 28.1538 16.8699L29.2338 17.0499C29.92 17.1624 30.0888 17.6687 29.5938 18.1524L28.75 18.9962C28.6038 19.1424 28.525 19.4124 28.57 19.6037L28.8063 20.6387C28.9975 21.4599 28.5588 21.7749 27.8388 21.3474L26.8263 20.7512C26.6463 20.6387 26.3425 20.6387 26.1625 20.7512L25.15 21.3474C24.43 21.7749 23.9913 21.4599 24.1825 20.6387L24.4188 19.6037C24.4379 19.4954 24.4317 19.3841 24.4004 19.2787C24.3692 19.1732 24.3138 19.0765 24.2388 18.9962L23.4063 18.1637C22.9113 17.6687 23.0688 17.1737 23.7663 17.0612L24.8463 16.8812C25.0263 16.8474 25.24 16.6899 25.3188 16.5324L25.915 15.3399C26.2413 14.6874 26.7588 14.6874 27.085 15.3287Z" stroke="white" stroke-width="1.5" stroke-linecap="round" stroke-linejoin="round"/>
</svg>
