<svg width="20" height="20" viewBox="0 0 20 20" fill="none" xmlns="http://www.w3.org/2000/svg">
<g clip-path="url(#clip0_172_8995)">
<path d="M7.22533 11.6667H3.33366C2.41699 11.6667 1.66699 12.4167 1.66699 13.3334V18.3334H7.22533V11.6667Z" stroke="#201B53" stroke-width="1.5" stroke-miterlimit="10" stroke-linecap="round" stroke-linejoin="round"/>
<path d="M11.1085 8.33325H8.88346C7.9668 8.33325 7.2168 9.08325 7.2168 9.99992V18.3333H12.7751V9.99992C12.7751 9.55789 12.5995 9.13397 12.287 8.82141C11.9744 8.50885 11.5505 8.33325 11.1085 8.33325ZM16.6668 14.1666H12.7751V18.3333H18.3335V15.8333C18.3335 14.9166 17.5835 14.1666 16.6668 14.1666Z" stroke="#201B53" stroke-width="1.5" stroke-miterlimit="10" stroke-linecap="round" stroke-linejoin="round"/>
<path opacity="0.4" d="M10.4335 1.72509L10.8752 2.60842C10.9335 2.73342 11.0919 2.85009 11.2252 2.86675L12.0252 3.00009C12.5335 3.08342 12.6585 3.45842 12.2919 3.81675L11.6669 4.44175C11.5585 4.55009 11.5002 4.75009 11.5335 4.89175L11.7085 5.65842C11.8502 6.26675 11.5252 6.50009 10.9919 6.18342L10.2419 5.74175C10.1085 5.65842 9.88352 5.65842 9.75019 5.74175L9.00019 6.18342C8.46686 6.50009 8.14186 6.26675 8.28352 5.65842L8.45852 4.89175C8.47273 4.81154 8.46808 4.72913 8.44494 4.65103C8.4218 4.57292 8.3808 4.50128 8.32519 4.44175L7.70852 3.82509C7.34186 3.45842 7.45852 3.09175 7.97519 3.00842L8.77519 2.87509C8.90852 2.85009 9.06686 2.73342 9.12519 2.61675L9.56686 1.73342C9.80852 1.25009 10.1919 1.25009 10.4335 1.72509Z" stroke="#201B53" stroke-width="1.5" stroke-linecap="round" stroke-linejoin="round"/>
</g>
<defs>
<clipPath id="clip0_172_8995">
<rect width="20" height="20" fill="white"/>
</clipPath>
</defs>
</svg>
