<svg width="20" height="20" viewBox="0 0 20 20" fill="none" xmlns="http://www.w3.org/2000/svg">
<path d="M18.3332 3.89333V13.9517C18.3332 14.7517 17.6832 15.5017 16.8832 15.6017L16.6082 15.635C14.7915 15.8767 11.9915 16.8017 10.3915 17.685C10.1748 17.81 9.8165 17.81 9.5915 17.685L9.55817 17.6683C7.95817 16.7933 5.1665 15.8767 3.35817 15.635L3.1165 15.6017C2.3165 15.5017 1.6665 14.7517 1.6665 13.9517V3.885C1.6665 2.89333 2.47484 2.14333 3.4665 2.22666C5.2165 2.36833 7.8665 3.25166 9.34984 4.17666L9.55817 4.30166C9.79984 4.45166 10.1998 4.45166 10.4415 4.30166L10.5832 4.21C11.1082 3.885 11.7748 3.56 12.4998 3.26833C13.5915 2.835 14.8082 2.485 15.8332 2.31833C16.0582 2.27666 16.2748 2.25166 16.4748 2.235H16.5248C17.5165 2.15166 18.3332 2.89333 18.3332 3.89333Z" stroke="white" stroke-width="1.5" stroke-linecap="round" stroke-linejoin="round"/>
<path opacity="0.4" d="M10 4.57334V17.0733M15.8333 2.3175V6.66751L14.1667 5.55917L12.5 6.66751V3.2675C13.5917 2.83417 14.8083 2.48417 15.8333 2.3175V2.3175Z" stroke="white" stroke-width="1.5" stroke-linecap="round" stroke-linejoin="round"/>
</svg>
