<svg width="20" height="20" viewBox="0 0 20 20" fill="none" xmlns="http://www.w3.org/2000/svg">
<path d="M8.39172 2.35004L2.61672 6.97504C1.96672 7.4917 1.55006 8.58337 1.69172 9.40004L2.80006 16.0334C3.00006 17.2167 4.13339 18.175 5.33339 18.175H14.6667C15.8584 18.175 17.0001 17.2084 17.2001 16.0334L18.3084 9.40004C18.4417 8.58337 18.0251 7.4917 17.3834 6.97504L11.6084 2.35837C10.7167 1.6417 9.27506 1.6417 8.39172 2.35004V2.35004Z" stroke="white" stroke-width="1.5" stroke-linecap="round" stroke-linejoin="round"/>
<path opacity="0.4" d="M9.99984 12.9167C10.5524 12.9167 11.0823 12.6972 11.473 12.3065C11.8637 11.9158 12.0832 11.3859 12.0832 10.8333C12.0832 10.2808 11.8637 9.75089 11.473 9.36019C11.0823 8.96949 10.5524 8.75 9.99984 8.75C9.4473 8.75 8.9174 8.96949 8.5267 9.36019C8.136 9.75089 7.9165 10.2808 7.9165 10.8333C7.9165 11.3859 8.136 11.9158 8.5267 12.3065C8.9174 12.6972 9.4473 12.9167 9.99984 12.9167Z" stroke="white" stroke-width="1.5" stroke-linecap="round" stroke-linejoin="round"/>
</svg>
