<svg width="20" height="20" viewBox="0 0 20 20" fill="none" xmlns="http://www.w3.org/2000/svg">
<g clip-path="url(#clip0_255_4295)">
<path d="M18.3337 4.2915V6.5415C18.3337 8.4165 17.5837 9.1665 15.7087 9.1665H13.4587C11.5837 9.1665 10.8337 8.4165 10.8337 6.5415V4.2915C10.8337 2.4165 11.5837 1.6665 13.4587 1.6665H15.7087C17.5837 1.6665 18.3337 2.4165 18.3337 4.2915ZM9.16699 13.4582V15.7082C9.16699 17.5832 8.41699 18.3332 6.54199 18.3332H4.29199C2.41699 18.3332 1.66699 17.5832 1.66699 15.7082V13.4582C1.66699 11.5832 2.41699 10.8332 4.29199 10.8332H6.54199C8.41699 10.8332 9.16699 11.5832 9.16699 13.4582Z" stroke="#4A4674" stroke-width="1.5" stroke-linecap="round" stroke-linejoin="round"/>
<path opacity="0.4" d="M14.4833 9.16758V11.3509C14.4833 13.5926 13.5916 14.4842 11.3499 14.4842H9.1666V13.4592C9.1666 11.5842 8.4166 10.8342 6.5416 10.8342H5.5166V8.65091C5.5166 6.40924 6.40827 5.51758 8.64994 5.51758H10.8333V6.54258C10.8333 8.41758 11.5833 9.16758 13.4583 9.16758H14.4833V9.16758Z" stroke="#4A4674" stroke-width="1.5" stroke-linecap="round" stroke-linejoin="round"/>
</g>
<defs>
<clipPath id="clip0_255_4295">
<rect width="20" height="20" fill="white"/>
</clipPath>
</defs>
</svg>
