<svg width="23" height="18" viewBox="0 0 23 18" fill="none" xmlns="http://www.w3.org/2000/svg">
<path d="M3.1 1H19.9C21.055 1 22 1.9 22 3V15C22 16.1 21.055 17 19.9 17H3.1C1.945 17 1 16.1 1 15V3C1 1.9 1.945 1 3.1 1Z" stroke="white" stroke-width="2" stroke-linecap="round" stroke-linejoin="round"/>
<path d="M3.1 1H19.9C21.055 1 22 1.9 22 3V15C22 16.1 21.055 17 19.9 17H3.1C1.945 17 1 16.1 1 15V3C1 1.9 1.945 1 3.1 1Z" stroke="white" stroke-width="2" stroke-linecap="round" stroke-linejoin="round"/>
<path opacity="0.4" d="M21 2L11.5 9L2 2" stroke="white" stroke-width="2" stroke-linecap="round" stroke-linejoin="round"/>
</svg>
