<svg width="18" height="20" viewBox="0 0 18 20" fill="none" xmlns="http://www.w3.org/2000/svg">
<path d="M8.00016 9.99996C9.10523 9.99996 10.165 9.56097 10.9464 8.77957C11.7278 7.99817 12.1668 6.93836 12.1668 5.83329C12.1668 4.72822 11.7278 3.66842 10.9464 2.88701C10.165 2.10561 9.10523 1.66663 8.00016 1.66663C6.89509 1.66663 5.83529 2.10561 5.05388 2.88701C4.27248 3.66842 3.8335 4.72822 3.8335 5.83329C3.8335 6.93836 4.27248 7.99817 5.05388 8.77957C5.83529 9.56097 6.89509 9.99996 8.00016 9.99996V9.99996Z" stroke="white" stroke-width="1.5" stroke-linecap="round" stroke-linejoin="round"/>
<path opacity="0.4" d="M0.841797 18.3333C0.841797 15.1083 4.05013 12.5 8.00013 12.5C8.80013 12.5 9.57513 12.6083 10.3001 12.8083" stroke="white" stroke-width="1.5" stroke-linecap="round" stroke-linejoin="round"/>
<path d="M16.3332 15C16.3332 15.625 16.1582 16.2167 15.8498 16.7167C15.6748 17.0167 15.4498 17.2833 15.1915 17.5C14.6082 18.025 13.8415 18.3333 12.9998 18.3333C12.4253 18.3345 11.8604 18.1861 11.3606 17.9026C10.8609 17.6191 10.4436 17.2104 10.1498 16.7167C9.83263 16.2004 9.66528 15.606 9.66651 15C9.66651 13.95 10.1498 13.0083 10.9165 12.4C11.4065 12.0073 11.9975 11.761 12.6214 11.6895C13.2453 11.618 13.8766 11.7243 14.4428 11.996C15.0089 12.2678 15.4867 12.6939 15.8212 13.2254C16.1556 13.7569 16.3331 14.372 16.3332 15V15Z" stroke="white" stroke-width="1.5" stroke-miterlimit="10" stroke-linecap="round" stroke-linejoin="round"/>
<path d="M11.7007 15L12.5257 15.825L14.3007 14.1833" stroke="white" stroke-width="1.5" stroke-linecap="round" stroke-linejoin="round"/>
</svg>
