<svg width="52" height="52" viewBox="0 0 52 52" fill="none" xmlns="http://www.w3.org/2000/svg">
<rect width="52" height="52" rx="5" fill="#F47817"/>
<path d="M37.75 18.256V31.8347C37.75 32.9147 36.8725 33.9272 35.7925 34.0622L35.4213 34.1072C32.9688 34.4335 29.1888 35.6822 27.0288 36.8747C26.7363 37.0435 26.2525 37.0435 25.9488 36.8747L25.9038 36.8522C23.7438 35.671 19.975 34.4335 17.5338 34.1072L17.2075 34.0622C16.1275 33.9272 15.25 32.9147 15.25 31.8347V18.2447C15.25 16.906 16.3412 15.8935 17.68 16.006C20.0425 16.1972 23.62 17.3897 25.6225 18.6385L25.9038 18.8072C26.23 19.0097 26.77 19.0097 27.0962 18.8072L27.2875 18.6835C27.9962 18.2447 28.8962 17.806 29.875 17.4122C31.3487 16.8272 32.9912 16.3547 34.375 16.1297C34.6788 16.0735 34.9713 16.0397 35.2413 16.0172H35.3087C36.6475 15.9047 37.75 16.906 37.75 18.256Z" stroke="white" stroke-width="1.5" stroke-linecap="round" stroke-linejoin="round"/>
<path opacity="0.4" d="M26.5 19.174V36.049M34.375 16.1287V22.0012L32.125 20.5049L29.875 22.0012V17.4112C31.3487 16.8262 32.9912 16.3537 34.375 16.1287V16.1287Z" stroke="white" stroke-width="1.5" stroke-linecap="round" stroke-linejoin="round"/>
</svg>
