<svg width="23" height="22" viewBox="0 0 23 22" fill="none" xmlns="http://www.w3.org/2000/svg">
<path d="M21.288 3.1505V16.0797C21.288 17.1081 20.508 18.0721 19.548 18.2007L19.218 18.2435C17.038 18.5542 13.678 19.7432 11.758 20.8786C11.4979 21.0393 11.068 21.0393 10.798 20.8786L10.758 20.8571C8.83798 19.7324 5.48799 18.5542 3.31799 18.2435L3.02799 18.2007C2.06799 18.0721 1.28799 17.1081 1.28799 16.0797V3.13979C1.28799 1.86508 2.258 0.901017 3.44799 1.00813C5.54799 1.19024 8.72798 2.32569 10.508 3.5147L10.758 3.67538C11.048 3.86819 11.5279 3.86819 11.818 3.67538L11.988 3.55755C12.618 3.13979 13.4179 2.72203 14.2879 2.34711C15.598 1.7901 17.058 1.34021 18.288 1.12597C18.558 1.0724 18.8179 1.04027 19.0579 1.01885H19.1179C20.308 0.911724 21.288 1.86508 21.288 3.1505Z" stroke="#201B53" stroke-width="1.5" stroke-linecap="round" stroke-linejoin="round"/>
<path opacity="0.4" d="M11.2882 4.02461V20.0923M18.2881 1.12491V6.7165L16.2882 5.29181L14.2882 6.7165V2.34606C15.5982 1.78905 17.0581 1.33915 18.2881 1.12491Z" stroke="#201B53" stroke-width="1.5" stroke-linecap="round" stroke-linejoin="round"/>
</svg>
