<svg width="19" height="21" viewBox="0 0 19 21" fill="none" xmlns="http://www.w3.org/2000/svg">
<path d="M16.1483 9.74072H3.18535C2.1626 9.74072 1.3335 10.5698 1.3335 11.5926V18.0741C1.3335 19.0968 2.1626 19.9259 3.18535 19.9259H16.1483C17.1711 19.9259 18.0002 19.0968 18.0002 18.0741V11.5926C18.0002 10.5698 17.1711 9.74072 16.1483 9.74072Z" stroke="white" stroke-width="1.5" stroke-linecap="round" stroke-linejoin="round"/>
<path opacity="0.4" d="M5.03711 9.7408V6.0371C5.03711 4.80925 5.52487 3.63168 6.3931 2.76346C7.26132 1.89523 8.43888 1.40747 9.66674 1.40747C10.8946 1.40747 12.0722 1.89523 12.9404 2.76346C13.8086 3.63168 14.2964 4.80925 14.2964 6.0371V9.7408" stroke="white" stroke-width="1.5" stroke-linecap="round" stroke-linejoin="round"/>
</svg>
