<svg width="66" height="53" viewBox="0 0 66 53" fill="none" xmlns="http://www.w3.org/2000/svg">
<path d="M49.4145 8.68115C51.3731 8.66954 53.5093 8.85611 55.602 9.38717C58.5304 10.1296 61.0859 11.4774 62.8082 14.1234C63.8862 15.7785 64.4694 17.6202 64.7469 19.5679C64.9802 21.2068 65.1281 22.8611 64.8537 24.5015C64.1355 28.7593 61.9124 31.8149 57.8267 33.3082C56.2394 33.8888 54.6346 34.4199 53.0374 34.9718C52.4785 35.1654 52.477 35.1638 52.4801 35.7831C52.4907 38.1567 52.6569 40.5255 52.7088 42.8983C52.7248 43.6453 52.7797 44.3947 52.6676 45.1387C52.5151 46.1451 52.1576 46.4996 51.168 46.6212C50.9047 46.6651 50.638 46.6837 50.3713 46.6769C48.7855 46.5623 47.2653 46.8743 45.7664 47.3574C45.3649 47.4803 44.9538 47.5679 44.5375 47.619C44.1456 47.6724 43.7972 47.5942 43.5158 47.3148C42.1603 45.967 40.9595 44.5526 40.7064 42.5066C40.3123 39.3179 40.0706 36.1183 39.8442 32.9157C39.4548 27.41 39.1303 21.9004 38.8706 16.387C38.7944 14.8031 38.7311 13.213 38.7593 11.6299C38.7791 10.4919 38.988 10.1923 40.063 9.84314C41.4353 9.39646 42.8579 9.19982 44.2828 9.02719C45.0772 8.9312 45.8739 8.85456 46.6706 8.78101C47.5828 8.69729 48.4987 8.66395 49.4145 8.68115ZM49.063 42.0599C49.063 41.7549 49.0752 41.4855 49.063 41.2184C48.9769 39.5153 48.8572 37.8191 48.8038 36.1176C48.768 34.9656 48.6795 33.8292 48.3601 32.7191C48.3319 32.6065 48.311 32.4922 48.2976 32.3769C48.1893 31.6562 48.3799 31.3225 49.0516 31.0609C49.4091 30.9245 49.7855 30.8462 50.167 30.8286C51.9967 30.7373 53.7593 30.3308 55.4869 29.7363C56.6686 29.3291 57.842 28.9002 58.7759 28.0107C60.9266 25.9624 62.3088 23.4526 62.8928 20.5364C63.4188 17.8973 62.7014 15.5912 60.7581 13.7046C59.5517 12.5315 58.1121 11.634 56.536 11.0725C54.3578 10.2867 52.1385 9.73321 49.7919 9.91126C48.6399 10.0003 47.4818 10.0003 46.3291 10.0808C44.3469 10.2178 42.3875 10.4679 40.4648 10.9927C40.1133 11.0895 40.0271 11.2428 40.0279 11.6012C40.0424 15.7816 40.2017 19.9573 40.4609 24.1292C40.6271 26.7938 40.8292 29.4553 41.0861 32.1122C41.3377 34.7171 41.6198 37.319 41.8988 39.9217C42.0071 40.9281 42.1397 41.9345 42.267 42.9927C44.5329 42.5623 46.7835 42.2929 49.063 42.0599ZM62.164 28.2484C61.3551 28.1516 60.5965 27.9674 59.9218 28.5704C59.6572 28.8066 59.3431 28.9877 59.045 29.1836C57.0346 30.5035 54.8084 31.2583 52.4884 31.7568C51.7771 31.9116 51.0711 32.0858 50.3049 32.2654C50.8241 32.8205 51.3128 33.3121 51.6689 33.9066C51.8168 34.1528 51.9464 34.1985 52.2155 34.1002C53.813 33.5149 55.414 32.9423 57.0186 32.3823C57.8862 32.0877 58.7107 31.6755 59.4697 31.1569C60.5622 30.3941 61.481 29.4024 62.164 28.2484ZM42.6665 44.2832C43.0676 44.7655 43.461 45.1441 43.7385 45.5954C44.1494 46.2635 44.664 46.344 45.3746 46.1915C46.7987 45.8865 48.2114 45.5002 49.6737 45.4026C49.9924 45.3817 50.3118 45.3655 50.693 45.3438C50.2927 44.7555 49.9253 44.2329 49.5776 43.6964C49.4251 43.4595 49.2414 43.3999 48.9677 43.427C47.6549 43.5586 46.3512 43.7638 45.0444 43.9411C44.2836 44.0433 43.5204 44.1586 42.6665 44.2832Z" fill="#F47A21"/>
<path d="M17.1926 28.8166C20.1225 28.9621 23.7317 28.4992 27.3515 28.5751C28.7482 28.6055 30.1442 28.5838 31.5393 28.51C32.0128 28.486 32.4763 28.5689 32.9353 28.6649C33.2469 28.7372 33.5278 28.9082 33.7373 29.1533C33.9469 29.3983 34.0742 29.7047 34.101 30.0281C34.1368 30.6219 33.732 31.273 33.1678 31.492C32.955 31.5708 32.7606 31.6933 32.5968 31.852C32.3032 32.1369 31.9007 32.1617 31.5294 32.2043C28.3449 32.5913 25.1749 33.0945 21.9888 33.4746C20.201 33.6875 18.4163 33.9352 16.6254 34.1272C15.6541 34.2317 14.679 34.3208 13.7032 34.3595C11.1667 34.4601 8.63479 34.7249 6.09298 34.6103C4.73745 34.5491 3.37734 34.5329 2.03553 34.3006C1.64749 34.2309 1.27117 34.1055 0.917865 33.9283C0.397151 33.672 0.0319658 33.2764 0.00299493 32.6579C-0.025976 31.965 0.149374 31.3604 0.785971 30.9718C1.29067 30.6622 1.83807 30.4671 2.38699 30.2751C3.97887 29.7216 5.63173 29.4754 7.29527 29.2687C10.3563 28.8987 13.4302 28.9025 17.1926 28.8166Z" fill="#F47A21"/>
<path d="M5.7027 13.6364C7.12304 13.6798 8.47171 14.0893 9.83563 14.4423C12.8463 15.2226 15.7175 16.4295 18.671 17.384C20.9246 18.1141 23.2065 18.7643 25.3846 19.7165C27.8731 20.8003 30.3806 21.8477 32.7798 23.1321C33.0893 23.2985 33.4256 23.3984 33.6947 23.6639C34.2367 24.2011 34.1468 25.3105 33.8411 25.9159C33.5483 26.4949 32.8621 26.7473 32.1242 26.5553C29.8042 25.9577 27.4248 25.6217 25.1262 24.9296C23.8301 24.5425 22.5935 23.9604 21.3279 23.4735C19.3724 22.7218 17.3536 22.1721 15.3447 21.5977C12.6618 20.8305 10.1474 19.6561 7.63613 18.4593C6.42774 17.8849 5.24374 17.2896 4.2107 16.414C3.12887 15.4851 3.66254 14.1504 4.61858 13.8052C4.89346 13.7045 5.18199 13.6476 5.47398 13.6364C5.55022 13.6341 5.62646 13.6364 5.7027 13.6364Z" fill="#F47A21"/>
<path d="M35.5231 36.1067C35.5231 36.5944 35.3096 36.9676 34.9581 37.2819C33.8603 38.2619 32.6809 39.1344 31.5091 40.0177C29.2166 41.744 26.9347 43.4827 24.4188 44.8785C23.3744 45.4591 22.323 46.0351 21.3228 46.6892C19.169 48.0948 16.9094 49.3257 14.5649 50.3703C13.0478 51.0477 11.4978 51.6546 9.86096 51.9774C9.17938 52.1121 8.40784 51.6887 8.22868 51.0144C8.12271 50.6142 8.28586 50.1768 8.48332 49.792C8.81801 49.1379 9.40582 48.7384 9.95626 48.3072C11.3545 47.211 12.9029 46.3455 14.3682 45.3515C17.446 43.2613 20.7189 41.4947 23.7944 39.3999C25.4671 38.2658 27.2969 37.4344 29.1335 36.6192C30.2809 36.1114 31.4039 35.5478 32.5421 35.0183C32.841 34.8789 33.152 34.7651 33.4608 34.6536C34.4451 34.3022 35.5093 35.0531 35.5231 36.1067Z" fill="#F47A21"/>
<path d="M15.2431 0.00225294C15.5115 -0.0171007 15.7958 0.0912795 16.0779 0.210498C18.0525 1.04502 19.7755 2.29217 21.4528 3.61054C23.3527 5.10696 25.0093 6.88439 26.8391 8.46055C28.2114 9.64421 29.538 10.8906 30.7372 12.2624C31.3364 12.9475 31.9456 13.621 32.5898 14.262C33.3827 15.0516 33.9293 16.0425 34.6399 16.8941C34.8686 17.1689 35.1263 17.4213 35.3382 17.7077C35.5631 18.0167 35.6619 18.4018 35.6142 18.7829C35.5665 19.164 35.3759 19.5117 35.0821 19.7538C35.0142 19.811 34.9486 19.8714 34.8869 19.9349C34.3075 20.5349 33.6602 20.6053 32.968 20.1408C31.1024 18.8914 29.3717 17.4538 27.5778 16.1044C25.2434 14.3479 23.1438 12.3289 21.128 10.214C19.8114 8.83214 18.3338 7.62215 17.0202 6.23643C15.959 5.11702 15.0761 3.85439 14.1994 2.59796C13.8083 2.0367 13.437 1.38255 13.9752 0.652534C14.2871 0.220561 14.6698 -0.0163265 15.2431 0.00225294Z" fill="#F47A21"/>
<path d="M50.5236 14.9688C51.6427 14.9502 52.7604 14.9502 53.8453 15.29C55.6392 15.8505 56.5663 17.2339 56.487 19.1406C56.4107 20.9668 55.4753 22.2589 54.074 23.2637C52.3396 24.5024 50.3917 25.1418 48.2798 25.2765C47.9307 25.299 47.4412 24.8259 47.4458 24.4528C47.4749 23.0732 47.3984 21.6934 47.2171 20.3259C47.057 19.112 46.8969 17.8981 46.8404 16.6742C46.7977 15.7398 47.0509 15.4069 47.9451 15.1561C48.796 14.92 49.6628 14.9912 50.5236 14.9688ZM51.3622 23.215C52.4821 22.7698 53.487 22.286 54.3401 21.5374C54.7175 21.2053 55.0262 20.8128 55.1787 20.3189C55.2336 20.1393 55.3518 19.8792 55.2237 19.7716C54.9126 19.5107 54.6374 19.1522 54.1701 19.1522C53.3716 19.145 52.5734 19.135 51.7754 19.1221C51.2486 19.1135 51.2463 19.1104 51.1899 19.664C51.0664 20.8321 51.3363 21.9825 51.3599 23.215H51.3622ZM49.0819 16.6634C49.5317 17.0969 50.0066 17.5064 50.4237 17.9709C50.721 18.3022 50.9795 18.4625 51.3835 18.1683C51.4872 18.0909 51.6481 18.0816 51.7846 18.07C52.8877 17.9786 53.9871 17.6938 55.1391 18.0336C55.1141 17.9588 55.0851 17.8854 55.0522 17.8138C55.0059 17.7223 54.9513 17.6355 54.889 17.5544C54.0145 16.5101 52.8908 16.0355 51.5543 16.1253C50.7091 16.1894 49.8765 16.3704 49.0796 16.6634H49.0819Z" fill="#F47A21"/>
</svg>
