<svg width="20" height="20" viewBox="0 0 20 20" fill="none" xmlns="http://www.w3.org/2000/svg">
<path d="M9.3751 18.75H1.25003V1.24997H9.3751C9.72012 1.24997 10.0001 0.969948 10.0001 0.624985C10.0001 0.280023 9.72007 0 9.3751 0H0.624989C0.280024 0 0 0.279971 0 0.624985V19.375C0 19.72 0.280024 20 0.624989 20H9.37505C9.72007 20 10 19.72 10 19.375C10.0001 19.03 9.72007 18.75 9.3751 18.75Z" fill="white"/>
<path d="M19.8184 9.56358L15.5059 5.1892C15.2615 4.94232 14.8659 4.94294 14.6221 5.1892C14.3778 5.43545 14.3778 5.83543 14.6221 6.08168L17.8722 9.37857H5.00145C4.65644 9.37857 4.37646 9.66109 4.37646 10.0098C4.37646 10.3586 4.65649 10.6411 5.00145 10.6411H17.8722L14.6221 13.938C14.3778 14.1849 14.3778 14.5842 14.6221 14.8305C14.8665 15.0774 15.2621 15.0774 15.5059 14.8305L19.8178 10.4561C20.0591 10.213 20.0616 9.80609 19.8184 9.56358Z" fill="#6A7B8D"/>
</svg>
