<svg width="6" height="20" viewBox="0 0 6 20" fill="none" xmlns="http://www.w3.org/2000/svg">
<path d="M2.99934 4.16664C4.14992 4.16664 5.08266 3.23391 5.08266 2.08332C5.08266 0.932734 4.14992 0 2.99934 0C1.84875 0 0.916016 0.932734 0.916016 2.08332C0.916016 3.23391 1.84875 4.16664 2.99934 4.16664Z" fill="#55597D"/>
<path d="M2.99934 12.0833C4.14992 12.0833 5.08266 11.1505 5.08266 9.99995C5.08266 8.84936 4.14992 7.91663 2.99934 7.91663C1.84875 7.91663 0.916016 8.84936 0.916016 9.99995C0.916016 11.1505 1.84875 12.0833 2.99934 12.0833Z" fill="#55597D"/>
<path d="M2.99934 20C4.14992 20 5.08266 19.0673 5.08266 17.9167C5.08266 16.7661 4.14992 15.8334 2.99934 15.8334C1.84875 15.8334 0.916016 16.7661 0.916016 17.9167C0.916016 19.0673 1.84875 20 2.99934 20Z" fill="#55597D"/>
</svg>
