<svg width="979" height="985" viewBox="0 0 979 985" fill="none" xmlns="http://www.w3.org/2000/svg">
<g opacity="0.1" clip-path="url(#clip0_3_8979)">
<path d="M921.282 1.95937C929.578 2.54715 937.091 6.97512 944.761 9.79648C953.996 13.2448 964.052 13.2056 973.443 16.027C974.656 16.3797 975.165 14.4987 973.952 14.1461C964.522 11.3247 954.622 11.0504 945.269 7.91557C937.209 5.25096 929.891 0.587875 921.282 9.21108e-05C919.991 -0.078279 920.03 1.881 921.282 1.95937Z" fill="white"/>
<path d="M920.422 0.470397C913.848 11.5599 905.004 21.5914 896.865 31.5837C892.991 36.3644 888.452 40.5572 884.226 44.9852C880.743 48.6294 878.748 52.9399 875.813 56.8976C875.069 57.9164 876.752 58.8961 877.496 57.8772C880.743 53.4493 883.248 48.8254 887.122 44.7501C891.504 40.1654 895.926 35.7766 899.956 30.8392C907.587 21.4347 915.922 11.8734 922.104 1.45004C922.769 0.392026 921.048 -0.587613 920.422 0.470397Z" fill="white"/>
<path d="M973.326 14.3811C967.261 21.7872 960.883 29.1149 955.718 37.2263C951.648 43.6135 947.931 50.2359 943.783 56.584C940.144 62.1875 936.27 69.6719 931.496 74.3742C930.596 75.2755 931.965 76.647 932.865 75.7457C936.622 72.0231 939.126 66.6938 942.178 62.3834C946.639 56.1137 950.591 49.4522 954.583 42.8298C960.413 33.1118 967.496 24.5302 974.657 15.7918C975.518 14.8122 974.148 13.4015 973.326 14.3811Z" fill="white"/>
<path d="M876.596 59.3662C895.535 61.1296 913.613 70.7692 931.535 76.3727C932.748 76.7646 933.256 74.8445 932.043 74.4918C913.926 68.8099 895.691 59.2095 876.556 57.4069C875.343 57.2894 875.383 59.2487 876.596 59.3662Z" fill="white"/>
<path d="M875.578 57.1719C867.909 64.8131 870.1 82.8384 880.704 86.9529C881.878 87.4232 882.387 85.5031 881.213 85.072C871.939 81.4669 870.452 65.0482 876.948 58.5434C877.848 57.6813 876.478 56.2706 875.578 57.1719Z" fill="white"/>
<path d="M880.978 86.9921C890.33 87.4623 899.017 91.616 907.548 95.0643C916.352 98.6302 925.665 100.785 935.057 102C936.309 102.157 936.309 100.198 935.057 100.041C924.804 98.7086 915.061 96.0048 905.474 92.1254C897.53 88.9122 889.587 85.4638 880.939 85.0328C879.687 84.9936 879.687 86.9529 880.978 86.9921Z" fill="white"/>
<path d="M973.091 14.8123C972.113 19.0835 970.469 23.7857 971.33 28.2137C971.996 31.5837 974.226 36.0508 977.513 37.4615C978.648 37.9709 979.665 36.2859 978.491 35.7765C975.556 34.4834 974.03 30.604 973.209 27.7043C972.152 23.9033 974.109 19.0443 974.969 15.3217C975.243 14.1069 973.365 13.5975 973.091 14.8123Z" fill="white"/>
<path d="M977.317 35.9333C972.974 39.8519 970.509 45.573 966.869 50.0793C963.269 54.5465 960.1 58.8177 956.813 63.5592C952.939 69.1627 948.517 74.296 945.035 80.1738C941.2 86.6394 939.635 94.7117 934.391 100.276C933.53 101.177 934.9 102.588 935.761 101.648C939.361 97.8073 941.356 92.7916 943.43 88.0109C946.248 81.6629 949.73 76.1769 953.917 70.6909C958.222 65.009 961.704 58.3083 966.635 53.2142C971.291 48.4335 973.756 41.7328 978.687 37.2656C979.626 36.4819 978.256 35.1104 977.317 35.9333Z" fill="white"/>
<path d="M930.869 75.4322C931.104 79.8209 929.148 84.1313 929.891 88.4809C930.674 93.0265 932.083 97.3761 934.235 101.491C934.822 102.627 936.504 101.608 935.917 100.511C933.687 96.2397 932.2 91.5766 931.652 86.796C931.222 83.1125 933.022 79.194 932.826 75.4322C932.748 74.1782 930.791 74.1782 930.869 75.4322Z" fill="white"/>
<path d="M878.631 61.5215C878.513 64.9307 877.809 68.2614 878.044 71.6706C878.318 75.354 879.491 79.0375 879.218 82.7601C879.139 84.014 881.096 84.014 881.174 82.7601C881.409 79.4293 880.509 75.981 880.078 72.6894C879.57 68.9668 880.431 65.2441 880.548 61.5215C880.626 60.2676 878.67 60.2676 878.631 61.5215Z" fill="white"/>
<path d="M883.365 62.5402C883.365 62.5402 883.326 62.501 883.287 62.4618C882.896 62.9712 882.504 63.4807 882.113 63.9901C889.156 67.2033 895.691 70.2989 903.126 72.7676C912.204 75.7457 920.617 80.7223 930.361 80.9966C931.613 81.0358 931.613 79.0765 930.361 79.0373C921.713 78.8022 914.122 74.6485 906.139 71.7488C898.235 68.8491 890.722 65.7926 883.13 62.3443C882.152 61.9132 881.096 63.0496 881.956 63.8725C881.996 63.9117 881.996 63.9117 882.035 63.9509C882.856 64.813 884.226 63.4023 883.365 62.5402Z" fill="white"/>
<path d="M883.13 69.3194C890.565 71.4355 897.569 75.6675 904.926 78.2537C913.261 81.1927 922.104 82.7209 930.361 85.8165C931.535 86.2476 932.043 84.3667 930.869 83.9356C923.513 81.1927 915.687 79.4685 908.174 77.2741C899.683 74.8054 892.091 69.8288 883.639 67.3993C882.426 67.0859 881.917 68.9668 883.13 69.3194Z" fill="white"/>
<path d="M882.191 73.5122C890.174 75.1971 897.883 80.1345 905.513 83.1126C913.652 86.2866 922.222 87.6973 930.4 90.4795C931.613 90.9105 932.122 88.9904 930.909 88.5986C922.731 85.8164 914.2 84.249 906.022 81.2317C898.235 78.332 890.878 73.3554 882.739 71.6312C881.487 71.3569 880.978 73.2379 882.191 73.5122Z" fill="white"/>
<path d="M886.182 80.6832C895.652 84.0923 905.591 86.9137 914.865 90.8714C920.304 93.1834 927.152 93.8887 932.121 97.1019C933.178 97.7681 934.156 96.0831 933.1 95.4169C927.661 91.9294 919.991 90.9498 914.043 88.4419C905.161 84.6801 895.73 82.0938 886.691 78.8023C885.517 78.3712 885.008 80.2521 886.182 80.6832Z" fill="white"/>
<path d="M932.513 81.0357C941.904 72.4541 946.835 60.0715 955.091 50.4318C961.626 42.8298 968.317 33.3469 972.896 24.4126C973.482 23.2762 971.8 22.2966 971.213 23.433C966.322 32.9159 959.122 42.7514 952.196 50.8237C944.448 59.8755 939.948 71.592 931.104 79.6642C930.204 80.4871 931.574 81.8586 932.513 81.0357Z" fill="white"/>
<path d="M972.074 30.0553C967.456 40.8313 958.378 49.217 951.53 58.4648C947.93 63.3238 944.878 68.5355 941.161 73.3553C937.6 77.9792 936.269 86.2474 930.948 89.343C929.852 89.97 930.83 91.655 931.926 91.028C935.135 89.1863 936.817 85.2677 938.539 82.1721C942.1 75.6673 946.678 70.0245 950.395 63.5981C957.048 52.0776 968.395 43.5351 973.756 31.0349C974.265 29.8985 972.582 28.9189 972.074 30.0553Z" fill="white"/>
<path d="M973.6 34.3659C970.744 37.6967 968.396 41.3801 966.048 45.1027C961.861 51.8035 957.165 57.5637 952.235 63.7551C948.517 68.4181 944.565 73.3163 941.631 78.528C938.5 84.1707 937.013 90.5972 932.591 95.5345C931.77 96.475 933.061 97.8073 933.961 96.906C934.313 96.5534 934.665 96.2007 935.017 95.848C935.917 94.9468 934.548 93.5753 933.648 94.4765C933.296 94.8292 932.944 95.1819 932.591 95.5345C933.061 96.0048 933.531 96.475 933.961 96.906C936.7 93.8104 938.461 90.0486 940.339 86.4043C941.865 83.4262 942.922 80.213 944.565 77.2741C946.131 74.4919 948.791 71.9448 950.631 69.241C954.622 63.4024 959.787 58.5434 963.817 52.7439C967.691 47.1012 970.431 40.9882 974.931 35.7374C975.791 34.7969 974.422 33.4254 973.6 34.3659Z" fill="white"/>
</g>
<g opacity="0.1" clip-path="url(#clip1_3_8979)">
<path d="M62.7793 100.156C71.7398 123.079 80.809 145.913 89.5778 168.957C90.0895 170.295 92.1665 169.5 91.6548 168.163C82.886 145.118 73.8168 122.284 64.8562 99.361C64.3446 98.0236 62.2676 98.8182 62.7793 100.156Z" fill="white"/>
<path d="M62.1496 99.63C62.3354 101.236 62.2815 102.838 62.2436 104.481C62.2471 105.486 62.1835 106.564 62.1038 107.601C62.0816 108.041 62.0178 108.496 61.954 108.952C61.8838 109.266 61.6314 109.602 61.9733 109.376C60.7719 110.219 62.121 112.002 63.2808 111.175C64.5237 110.316 64.344 107.606 64.4268 106.329C64.506 104.047 64.5949 101.665 64.3514 99.4105C64.2296 97.9719 61.9862 98.2073 62.1496 99.63Z" fill="white"/>
<path d="M62.8885 101.935C65.8449 103.439 67.9262 106.763 70.1351 109.176C71.1133 110.239 72.8993 108.933 71.9211 107.87C69.4597 105.17 67.1419 101.601 63.8243 99.8997C62.4851 99.2621 61.5909 101.281 62.8885 101.935Z" fill="white"/>
<path d="M65.2877 158.367C96.2251 146.627 127.457 135.78 158.401 124.181C158.129 123.47 157.873 122.802 157.601 122.091C157.31 122.202 157.061 122.298 156.77 122.409C155.441 122.917 156.241 125.007 157.57 124.499C157.861 124.387 158.11 124.292 158.401 124.181C159.73 123.672 158.931 121.583 157.601 122.091C126.673 133.732 95.4256 144.537 64.4882 156.277C63.1589 156.786 63.9584 158.876 65.2877 158.367Z" fill="white"/>
<path d="M148.363 123.086C150.277 123.36 152.137 123.99 154.051 124.264C155.553 124.456 157.436 124.023 158.982 123.958C160.43 123.884 160.202 121.671 158.755 121.746C157.167 121.826 155.31 122.201 153.75 121.983C152.05 121.771 150.414 121.104 148.714 120.892C147.253 120.684 146.918 122.92 148.363 123.086Z" fill="white"/>
<path d="M159.682 124.17C160.315 123.832 160.372 123.235 160.372 122.612C160.359 121.707 159.247 121.414 158.589 121.809C155.547 123.692 154.327 127.225 152.398 130.023C151.606 131.188 153.348 132.63 154.124 131.423C155.919 128.772 157.072 125.312 159.896 123.609C159.321 123.35 158.746 123.091 158.113 122.806C158.164 122.69 158.241 122.517 158.292 122.402C157.11 123.046 158.417 124.845 159.682 124.17Z" fill="white"/>
<path d="M140.963 115.568C130.827 119.446 126.14 109.932 122.354 102.277C121.098 99.7398 119.905 97.3693 118.639 95.5538C116.603 92.5958 113.461 90.7315 110.978 90.9628C109.281 91.1329 107.91 92.2801 106.99 94.3568C105.141 99.2325 105.255 104.507 105.33 109.557C105.269 110.395 105.4 111.734 105.548 113.115C105.923 116.709 106.41 121.218 104.266 123.332C103.362 124.205 102.084 124.598 100.441 124.412C96.2161 123.824 93.4797 120.655 91.1843 117.269C90.4139 116.126 89.3559 115.477 88.2981 115.45C87.2979 115.45 86.3649 115.998 85.6078 117.007C83.5953 119.837 84.3954 124.418 85.0991 126.88C85.1695 127.188 85.3294 127.606 85.5213 128.107C86.5351 130.882 87.3283 133.453 86.3093 134.897C86.0314 135.291 85.4211 135.812 84.3218 135.801C82.8838 135.776 81.6788 134.992 80.4898 134.249C79.4893 133.625 78.604 133.054 77.6708 132.979C77.2745 132.939 77.022 132.653 77.0603 132.255C77.1145 131.899 77.3828 131.604 77.7791 131.644C79.051 131.733 80.125 132.424 81.1989 133.115C82.2728 133.806 83.2733 134.429 84.331 134.456C84.9925 134.442 85.1938 134.222 85.2449 134.106C85.9189 133.13 84.8412 130.188 84.2751 128.584C84.0673 128.041 83.8914 127.581 83.821 127.273C83.0629 124.544 82.1859 119.514 84.5434 116.216C85.5369 114.83 86.8693 114.081 88.3073 114.105C89.787 114.114 91.2636 114.987 92.2771 116.515C94.419 119.625 96.8773 122.565 100.632 123.045C101.837 123.207 102.741 122.957 103.377 122.378C105.035 120.738 104.612 116.396 104.273 113.268C104.119 111.745 103.988 110.406 104.074 109.511C103.967 104.377 103.863 99.0029 105.798 93.8547C107.229 90.6242 109.332 89.7719 110.904 89.6495C114.314 89.3512 117.817 92.0355 119.789 94.8263C121.145 96.7512 122.312 99.1794 123.584 101.759C127.588 109.858 131.719 118.291 141.206 114.086C141.538 113.959 141.925 114.099 142.094 114.417C142.222 114.751 142.085 115.139 141.768 115.308C141.462 115.378 141.212 115.473 140.963 115.568Z" fill="white"/>
</g>
<g opacity="0.1" clip-path="url(#clip2_3_8979)">
<path d="M543.659 913.709C536.685 918.838 550.246 925.884 551.757 919.229C552.222 917.115 551.059 914.766 549.548 913.396C547.573 911.595 545.015 911.712 542.962 913.317C541.993 914.1 543.349 915.471 544.318 914.688C546.759 912.769 549.626 915.275 549.897 917.976C550.323 922.439 540.521 918.407 544.628 915.392C545.635 914.649 544.667 912.965 543.659 913.709Z" fill="white"/>
<path d="M547.844 924.201C548.27 926.276 548.812 928.586 548.89 930.7C548.967 932.266 549.82 933.714 549.897 935.241C549.975 936.611 550.246 938.53 551.098 939.626C551.408 940.017 552.144 940.017 552.454 939.626C552.726 939.274 552.803 939.039 552.803 938.569C552.881 937.316 550.943 937.316 550.866 938.569C550.943 938.451 551.021 938.334 551.06 938.216C551.525 938.216 551.989 938.216 552.416 938.216C551.834 937.473 551.834 935.045 551.447 933.871C550.401 930.622 550.323 927.02 549.626 923.692C549.471 922.439 547.611 922.987 547.844 924.201Z" fill="white"/>
<path d="M549.355 945.028C547.534 946.399 547.34 949.374 548.425 951.292C549.897 953.837 552.881 952.349 554.198 950.548C555.67 948.591 556.251 945.498 554.082 943.893C551.912 942.249 548.929 944.441 548.386 946.673C548.076 947.886 549.975 948.434 550.246 947.182C550.517 946.085 551.718 944.911 552.919 945.459C554.275 946.085 553.307 948.239 552.803 949.1C552.299 950 550.788 951.488 549.975 950.079C549.51 949.257 549.471 947.338 550.324 946.712C551.292 945.968 550.324 944.285 549.355 945.028Z" fill="white"/>
<path d="M550.401 957.361C549.936 962.411 550.905 967.539 550.788 972.668C550.75 973.882 550.324 977.718 552.377 977.679C553.617 977.64 553.617 975.682 552.377 975.722C553.191 975.722 552.726 974.469 552.687 973.49C552.687 972.159 552.726 970.828 552.803 969.497C552.958 965.425 551.951 961.471 552.3 957.4C552.454 956.108 550.517 956.108 550.401 957.361Z" fill="white"/>
<path d="M546.294 979.558C545.674 982.377 547.262 985.117 550.285 985.039C552.338 985 554.43 983.669 554.159 981.359C553.926 979.597 552.725 977.914 551.176 977.092C549.393 976.152 547.727 977.131 547.301 979.049C547.03 980.263 548.89 980.811 549.161 979.558C549.2 979.323 549.277 979.088 549.393 978.854C549.471 978.736 549.587 978.658 549.548 978.658C549.742 978.579 550.013 978.658 550.362 978.893C551.214 979.402 551.873 980.341 552.144 981.242C552.415 982.259 551.796 982.768 550.749 983.003C548.812 983.434 547.727 981.868 548.154 980.067C548.464 978.814 546.565 978.305 546.294 979.558Z" fill="white"/>
<path d="M542.264 949.57C541.141 951.958 537.305 953.172 535.174 954.503C533.082 955.834 531.3 957.478 529.866 959.475C529.13 960.493 530.835 961.471 531.532 960.453C533.353 957.87 535.988 956.147 538.7 954.659C540.637 953.602 542.962 952.663 543.93 950.509C544.473 949.413 542.807 948.395 542.264 949.57Z" fill="white"/>
<path d="M523.009 959.944C523.009 961.158 523.009 962.372 523.706 963.429C524.287 964.329 525.682 965.034 526.689 965.308C529.092 965.973 531.068 963.742 531.455 961.589C531.959 959.005 530.293 956.773 527.697 956.617C525.372 956.46 523.784 958.809 524.055 961.001C524.21 962.254 526.147 962.254 525.992 961.001C525.837 959.905 526.225 958.731 527.464 958.574C529.092 958.378 529.828 959.984 529.557 961.354C529.324 962.607 528.278 963.703 526.961 963.311C526.496 963.194 525.527 962.567 525.256 962.176C524.869 961.589 524.985 960.61 524.985 959.944C524.946 958.692 523.009 958.692 523.009 959.944Z" fill="white"/>
<path d="M529.595 956.304C529.247 950.275 531.494 944.559 531.649 938.569C531.687 937.316 529.75 937.316 529.712 938.569C529.518 944.559 527.271 950.275 527.658 956.304C527.736 957.556 529.673 957.556 529.595 956.304Z" fill="white"/>
<path d="M526.263 930.778C524.907 932.814 525.566 935.163 527.425 936.572C529.518 938.138 532.114 937.042 533.315 934.967C534.593 932.736 533.935 929.956 531.804 928.547C529.479 927.02 526.844 928.468 525.759 930.778C525.217 931.913 526.883 932.892 527.425 931.757C528.045 930.465 529.169 929.408 530.641 930.152C532.114 930.856 532.346 932.579 531.649 933.949C530.215 936.885 526.224 934.38 527.929 931.757C528.627 930.7 526.961 929.721 526.263 930.778Z" fill="white"/>
<path d="M533.47 930.387C537.034 927.176 539.708 923.144 543.272 919.934C544.202 919.112 542.846 917.702 541.916 918.563C538.352 921.735 535.678 925.806 532.075 928.977C531.145 929.839 532.54 931.209 533.47 930.387Z" fill="white"/>
<path d="M524.52 932.892C523.745 932.97 523.047 933.088 522.427 933.636C521.653 934.302 520.568 934.497 519.638 934.85C518.011 935.476 516.345 936.181 515.027 937.355C514.097 938.177 515.492 939.587 516.422 938.725C517.429 937.786 518.863 937.238 520.142 936.729C520.878 936.416 521.614 936.181 522.35 935.946C523.125 935.711 523.629 934.928 524.52 934.85C525.759 934.732 525.759 932.775 524.52 932.892Z" fill="white"/>
<path d="M507.279 938.921C506.388 939.861 505.652 941.114 506.155 942.445C506.62 943.619 507.821 944.285 508.984 944.48C512.199 945.029 514.795 942.836 515.144 939.626C515.26 938.373 513.323 938.373 513.207 939.626C513.013 941.583 511.463 942.68 509.603 942.562C507.976 942.484 507.589 941.466 508.674 940.291C509.526 939.391 508.17 938.021 507.279 938.921Z" fill="white"/>
<path d="M514.679 938.256C513.401 937.394 511.928 936.494 510.301 936.69C508.635 936.885 507.511 938.295 506.62 939.626C505.923 940.683 507.589 941.662 508.286 940.605C508.829 939.822 509.526 938.725 510.533 938.608C511.657 938.451 512.819 939.352 513.672 939.939C514.757 940.605 515.725 938.921 514.679 938.256Z" fill="white"/>
<path d="M513.168 946.203C514.64 946.908 514.95 948.278 515.764 949.531C516.577 950.744 517.352 951.958 518.205 953.093C519.638 955.09 521.304 956.969 523.474 958.183C524.598 958.809 525.566 957.126 524.481 956.499C521.73 954.972 519.948 952.271 518.205 949.726C516.965 947.886 516.268 945.498 514.137 944.52C513.013 943.971 512.044 945.655 513.168 946.203Z" fill="white"/>
<path d="M556.523 941.622C561.598 941.936 565.821 938.686 570.742 937.942C571.982 937.747 571.439 935.867 570.238 936.063C565.55 936.768 561.404 939.978 556.561 939.665C555.283 939.587 555.283 941.544 556.523 941.622Z" fill="white"/>
<path d="M569.502 936.455C569.153 941.701 575.972 942.053 578.142 938.177C579.575 935.593 578.18 932.853 575.856 931.483C574.693 930.778 573.144 930.504 571.865 931.013C570.393 931.6 569.889 933.166 569.076 934.458C568.417 935.515 570.083 936.494 570.742 935.437C571.207 934.693 571.555 933.558 572.253 933.01C573.105 932.344 574.384 932.931 575.158 933.401C576.708 934.341 577.096 936.181 576.127 937.668C575.468 938.647 574.151 938.999 573.066 938.96C571.749 938.882 571.284 937.708 571.361 936.533C571.555 935.202 569.618 935.241 569.502 936.455Z" fill="white"/>
<path d="M576.088 927.881C576.747 924.005 579.072 920.638 579.227 916.645C579.265 915.392 577.328 915.392 577.289 916.645C577.134 920.403 574.887 923.653 574.229 927.333C573.996 928.586 575.856 929.095 576.088 927.881Z" fill="white"/>
<path d="M577.406 910.929C576.243 913.004 576.631 915.941 578.723 917.272C579.808 917.937 581.086 917.702 582.132 917.115C583.101 916.606 583.605 915.353 583.798 914.296C584.186 912.3 583.527 909.872 581.861 908.659C579.653 907.054 577.522 909.011 576.36 910.929C575.74 912.026 577.406 913.004 578.026 911.908C578.568 911.008 579.537 909.52 580.738 910.264C581.668 910.851 581.939 912.3 581.939 913.318C581.939 914.531 581.164 916.058 579.73 915.627C578.374 915.197 578.491 912.887 579.033 911.947C579.692 910.812 578.026 909.833 577.406 910.929Z" fill="white"/>
<path d="M585.116 912.104C585.813 911.477 587.13 911.438 588.021 911.321C589.145 911.164 590.307 911.047 591.431 910.773C592.632 910.499 592.128 908.58 590.927 908.894C588.68 909.442 585.619 909.089 583.798 910.694C582.791 911.556 584.186 912.926 585.116 912.104Z" fill="white"/>
<path d="M590.462 911.086C593.484 913.905 599.412 911.869 598.521 907.249C598.172 905.527 596.778 904.274 595.112 904.039C593.058 903.765 591.276 904.94 590.307 906.74C589.726 907.837 591.392 908.854 591.973 907.719C592.477 906.74 593.252 905.997 594.376 905.918C595.267 905.879 596.197 906.388 596.507 907.249C597.553 910.068 593.562 911.282 591.818 909.637C590.927 908.815 589.533 910.225 590.462 911.086Z" fill="white"/>
<path d="M583.76 922.557C585.929 924.827 587.673 927.49 589.3 930.191C589.959 931.287 591.625 930.269 590.966 929.212C589.261 926.393 587.44 923.575 585.116 921.187C584.263 920.247 582.869 921.656 583.76 922.557Z" fill="white"/>
<path d="M589.145 932.305C589.184 933.714 589.726 934.967 591.005 935.633C592.245 936.298 593.833 936.024 595.073 935.515C596.972 934.732 597.979 932.892 597.359 930.856C596.817 929.134 595.267 927.685 593.523 927.255C591.16 926.667 589.262 928.273 588.215 930.269C587.634 931.404 589.3 932.383 589.881 931.248C590.501 930.034 591.392 928.977 592.865 929.095C593.911 929.173 594.841 930.113 595.306 931.013C595.732 931.796 595.771 932.775 594.996 933.362C593.64 934.419 591.121 934.576 591.044 932.344C591.044 931.052 589.107 931.052 589.145 932.305Z" fill="white"/>
<path d="M599.683 931.17C605.301 928.86 610.57 925.924 615.413 922.204C616.382 921.461 615.413 919.738 614.445 920.521C609.757 924.123 604.643 927.059 599.18 929.29C598.017 929.721 598.521 931.639 599.683 931.17Z" fill="white"/>
<path d="M614.6 919.816C613.05 921.93 614.716 924.005 617.041 924.084C619.598 924.123 621.806 921.578 622 919.112C622.155 917.115 620.334 915.627 618.513 915.471C616.227 915.236 614.484 916.88 613.98 919.033C613.709 920.247 615.569 920.795 615.84 919.542C616.111 918.368 616.77 917.428 618.009 917.389C618.901 917.35 619.792 917.82 620.024 918.72C620.334 920.012 618.823 921.617 617.777 921.97C617.273 922.165 616.653 922.165 616.15 921.891C615.646 921.617 616.033 921.108 616.266 920.795C617.002 919.777 615.336 918.798 614.6 919.816Z" fill="white"/>
<path d="M601.233 935.868C604.875 937.081 605.883 941.779 609.486 943.189C610.648 943.658 611.152 941.74 609.99 941.309C608.285 940.644 607.2 938.804 606.115 937.434C604.914 935.946 603.597 934.615 601.737 934.028C600.536 933.558 600.032 935.476 601.233 935.868Z" fill="white"/>
<path d="M609.834 945.616C609.602 947.299 609.912 949.022 611.345 950.04C612.74 951.058 614.329 950.862 615.879 950.392C618.009 949.726 620.257 948.043 619.52 945.498C618.978 943.658 617.08 942.21 615.259 941.857C613.011 941.388 611.229 942.836 610.842 945.068C610.648 946.281 612.508 946.829 612.702 945.577C612.895 944.363 613.515 943.541 614.639 943.697C615.801 943.854 616.886 944.598 617.467 945.577C618.087 946.634 617.467 947.456 616.305 948.082C615.375 948.552 614.213 948.983 613.205 948.748C611.965 948.474 611.539 947.221 611.694 946.086C611.888 944.911 610.028 944.363 609.834 945.616Z" fill="white"/>
<path d="M592.244 940.135C592.206 943.423 591.702 946.673 590.733 949.805C590.346 951.018 592.206 951.527 592.593 950.314C593.639 947.025 594.143 943.58 594.182 940.135C594.22 938.882 592.283 938.882 592.244 940.135Z" fill="white"/>
<path d="M588.138 950.823C587.479 953.172 589.455 956.029 591.973 955.755C593.833 955.56 595.577 954.659 595.499 952.506C595.46 950.94 594.453 949.413 593.213 948.552C591.625 947.495 590.114 948.591 589.687 950.274C589.377 951.488 591.276 952.036 591.547 950.783C591.586 950.549 591.663 950.353 591.741 950.196C591.78 950.079 591.857 950.079 591.741 950.118C591.818 950.079 592.012 950.079 591.78 950.079C592.012 950.079 591.586 950.04 591.857 950.079C592.051 950.118 592.051 950.118 592.283 950.274C592.864 950.666 593.368 951.527 593.523 952.31C593.562 952.584 593.523 952.897 593.446 953.093C593.291 953.406 592.864 953.563 592.4 953.68C591.625 953.837 591.043 953.798 590.501 953.172C590.075 952.702 589.804 951.919 589.997 951.292C590.346 950.118 588.486 949.609 588.138 950.823Z" fill="white"/>
<path d="M572.098 943.267C572.059 948.787 571.013 954.894 573.764 959.944C574.383 961.041 576.049 960.062 575.43 958.966C572.872 954.307 573.957 948.395 573.996 943.267C574.074 942.014 572.136 942.014 572.098 943.267Z" fill="white"/>
<path d="M571.633 963.898C571.284 965.034 571.323 966.052 572.059 966.991C572.756 967.813 574.306 967.892 575.236 967.696C577.599 967.187 578.994 963.938 579.188 961.784C579.382 959.67 577.522 958.026 575.546 958.574C573.415 959.161 572.136 961.55 572.098 963.624C572.059 964.877 573.996 964.877 574.035 963.624C574.074 962.45 574.616 961.354 575.585 960.688C576.514 960.062 577.018 960.532 577.251 961.51C577.522 962.724 576.321 964.486 575.546 965.269C575.081 965.739 574.694 965.778 574.112 965.778C573.182 965.739 573.26 965.151 573.492 964.407C573.841 963.194 571.981 962.685 571.633 963.898Z" fill="white"/>
<path d="M555.517 962.792C560.282 965.062 564.04 968.821 567.721 972.54C568.612 973.44 569.968 972.031 569.077 971.17C565.28 967.333 561.406 963.418 556.485 961.108C555.362 960.56 554.354 962.244 555.517 962.792Z" fill="white"/>
</g>
<g opacity="0.1" clip-path="url(#clip3_3_8979)">
<path d="M12.8623 736.749C12.7708 736.501 12.7361 736.238 12.6799 736.011C12.048 736.259 11.4161 736.507 10.7842 736.755C13.8968 742.402 15.8658 748.665 20.2643 753.539C21.1695 754.52 22.6558 753.094 21.7506 752.113C17.5077 747.381 15.6235 741.217 12.5884 735.762C12.0025 734.732 10.3766 735.349 10.6926 736.506C10.7274 736.769 10.8189 737.017 10.8751 737.245C11.1624 738.53 13.1851 738.056 12.8623 736.749Z" fill="white"/>
<path d="M22.6104 733.143C17.4819 741.176 9.91181 747.255 4.78338 755.288C4.06401 756.403 5.8343 757.469 6.55367 756.355C11.6821 748.321 19.2522 742.242 24.3807 734.209C25.1 733.095 23.3297 732.029 22.6104 733.143Z" fill="white"/>
<path d="M37.406 735.575C37.4204 740.758 36.3993 745.898 36.4137 751.081C36.4171 752.437 38.4953 752.431 38.4705 751.111C38.4561 745.928 39.4772 740.788 39.4628 735.605C39.438 734.284 37.3812 734.254 37.406 735.575Z" fill="white"/>
<path d="M30.0961 745.147C34.3947 744.98 38.684 745.63 42.9693 745.164C44.2605 745.023 44.3158 742.929 43.0032 743.105C38.7534 743.592 34.4073 742.957 30.13 743.088C28.7539 743.13 28.72 745.189 30.0961 745.147Z" fill="white"/>
<path d="M49.5452 734.327C51.484 738.639 51.7322 743.914 56.3997 746.339C57.5755 746.95 58.6442 745.176 57.4684 744.565C53.2825 742.382 53.0624 737.22 51.3707 733.299C50.8349 732.106 49.0307 733.099 49.5452 734.327Z" fill="white"/>
<path d="M60.3418 733.626C57.2535 742.598 55.0946 754.112 46.5679 759.857C45.4524 760.587 46.4759 762.413 47.556 761.661C56.6726 755.498 58.9951 743.792 62.3051 734.131C62.7339 732.939 60.7566 732.376 60.3418 733.626Z" fill="white"/>
<path d="M72.4387 727.081C72.631 726.762 72.8234 726.443 73.0158 726.123C72.6323 726.279 72.2489 726.435 71.8655 726.591C77.04 727.774 72.7965 733.777 70.5495 735.905C70.0872 736.352 70.0706 737.261 70.7152 737.553C73.06 738.627 75.7788 737.798 78.0085 736.82C79.2369 736.302 78.2134 734.477 77.0204 735.016C75.5789 735.646 73.3211 736.511 71.8193 735.8C71.8675 736.361 71.937 736.886 71.9851 737.447C75.4198 734.148 79.5903 726.263 72.4312 724.611C71.9776 724.482 71.516 724.688 71.2809 725.078C71.0885 725.398 70.8962 725.717 70.7038 726.036C69.9844 727.151 71.7547 728.217 72.4387 727.081Z" fill="white"/>
<path d="M76.4993 749.258C81.4512 748.807 86.3129 747.625 91.2648 747.175C92.5915 747.055 92.6254 744.996 91.2988 745.116C86.3468 745.566 81.4852 746.748 76.5332 747.199C75.2066 747.319 75.1727 749.378 76.4993 749.258Z" fill="white"/>
<path d="M77.2122 755.925C81.8956 755.12 86.5088 754.03 91.255 753.6C92.5816 753.48 92.6155 751.421 91.2889 751.541C86.3937 751.978 81.5748 753.089 76.7211 753.937C75.3871 754.149 75.9136 756.159 77.2122 755.925Z" fill="white"/>
</g>
<g opacity="0.1" clip-path="url(#clip4_3_8979)">
<path d="M930.83 518.924C930.127 525.483 920.084 531.183 915.351 535.196C910.33 539.526 904.733 543.762 900.256 548.634C899.552 549.398 900.703 550.513 901.375 549.748C907.1 543.507 914.232 538.476 920.436 532.744C924.882 528.636 931.694 525.611 932.429 518.924C932.557 517.904 930.958 517.936 930.83 518.924Z" fill="white"/>
<path d="M932.43 518.923C932.557 520.229 931.63 519.497 933.133 520.579C934.636 521.662 936.235 522.458 937.93 523.222C941.352 524.719 945.414 524.623 949.06 524.687C956.256 524.783 963.068 526.407 970.2 526.789C971.224 526.853 971.224 525.26 970.2 525.197C965.499 524.942 960.957 523.541 956.256 523.254C950.915 522.968 945.574 523.413 940.297 522.331C937.067 521.662 934.892 519.433 932.014 518.095C931.534 517.841 930.766 518.095 930.83 518.764C930.83 518.828 930.83 518.86 930.83 518.923C930.926 519.942 932.525 519.942 932.43 518.923Z" fill="white"/>
<path d="M970.008 525.197C968.121 525.579 967.098 527.012 965.947 528.445C962.844 532.266 958.623 534.909 954.689 537.839C947.877 542.934 941.129 548.761 935.788 555.321C935.148 556.117 936.267 557.232 936.907 556.436C941.353 550.99 946.853 546.245 952.258 541.787C955.585 539.081 959.135 536.692 962.461 533.986C964.38 532.425 968.026 527.203 970.456 526.693C971.448 526.534 971.032 524.974 970.008 525.197Z" fill="white"/>
<path d="M901.215 549.876C902.654 549.239 905.341 549.939 906.812 550.067C910.65 550.449 914.487 551.118 918.293 551.786C924.018 552.805 930.766 553.697 935.915 556.563C936.811 557.072 937.61 555.703 936.715 555.194C930.638 551.818 922.675 550.927 915.927 549.78C911.833 549.08 904.413 546.755 900.415 548.506C899.488 548.92 900.287 550.29 901.215 549.876Z" fill="white"/>
<path d="M931.118 535.896C923.315 539.749 915.991 544.43 908.187 548.315C907.26 548.761 908.059 550.162 908.987 549.685C916.79 545.8 924.114 541.151 931.918 537.266C932.845 536.788 932.046 535.419 931.118 535.896Z" fill="white"/>
<path d="M907.388 549.398C907.707 550.035 907.516 551.054 907.484 551.755C907.452 553.538 907.58 555.576 907.899 557.327C908.571 560.862 908.507 564.619 909.435 568.122C909.69 569.109 911.257 568.695 910.97 567.708C910.01 564.078 909.722 559.556 909.339 555.799C909.115 553.729 909.754 550.544 908.763 548.634C908.283 547.679 906.908 548.475 907.388 549.398Z" fill="white"/>
<path d="M910.97 568.409C910.97 568.377 910.97 568.345 910.97 568.313C910.938 568.058 910.65 567.804 910.426 567.772C910.394 567.772 910.362 567.772 910.33 567.772C909.914 567.708 909.467 567.867 909.339 568.313C908.859 570.001 908.763 571.752 908.699 573.472C908.635 575.383 908.347 577.612 909.019 579.459C909.371 580.414 910.906 580 910.554 579.045C910.042 577.58 910.266 575.828 910.266 574.3C910.298 572.453 910.362 570.542 910.874 568.727C910.554 568.918 910.202 569.109 909.882 569.269C909.722 569.141 909.595 568.982 909.435 568.855C909.563 569.842 911.13 569.428 910.97 568.409Z" fill="white"/>
<path d="M909.115 569.587C909.435 571.338 909.53 573.185 910.042 574.905C910.49 576.402 911.289 577.866 911.673 579.363C911.897 580.35 913.464 579.936 913.208 578.949C912.857 577.421 912.057 575.988 911.577 574.491C911.034 572.771 910.97 570.956 910.65 569.173C910.458 568.154 908.923 568.568 909.115 569.587Z" fill="white"/>
<path d="M909.435 569.141C909.978 570.511 910.906 571.561 911.641 572.835C912.569 574.523 912.601 576.338 912.953 578.153C913.145 579.172 914.68 578.726 914.488 577.739C914.136 575.988 914.072 574.459 913.368 572.771C912.761 571.307 911.577 570.192 910.97 568.695C910.586 567.804 909.051 568.186 909.435 569.141Z" fill="white"/>
<path d="M910.874 569.078C910.458 569.173 910.426 569.269 910.746 569.364C910.97 569.492 911.162 569.619 911.354 569.778C911.929 570.16 912.409 570.638 912.921 571.116C914.008 572.198 914.84 573.536 915.383 574.969C915.767 575.924 917.302 575.51 916.918 574.555C916.087 572.453 914.872 570.702 913.176 569.205C912.377 568.504 910.778 567.008 909.722 567.963C908.987 568.664 910.106 569.778 910.874 569.078Z" fill="white"/>
<path d="M918.741 551.436C918.741 551.404 918.741 551.404 918.741 551.372C918.262 551.436 917.782 551.5 917.27 551.563C917.814 552.551 917.782 554.652 917.974 555.735C918.326 557.614 918.837 559.461 919.253 561.308C919.733 563.378 919.605 565.861 920.66 567.772C921.14 568.664 922.547 567.868 922.036 566.976C920.852 564.811 920.884 561.18 920.309 558.792C919.957 557.264 919.573 555.703 919.285 554.143C919.093 553.156 919.157 551.723 918.613 550.767C918.294 550.194 917.302 550.29 917.142 550.958C917.142 550.99 917.142 550.99 917.142 551.022C917.014 552.009 918.55 552.423 918.741 551.436Z" fill="white"/>
<path d="M954.753 538.762C954.721 538.762 954.689 538.73 954.625 538.73C954.017 538.571 953.506 539.144 953.634 539.718C954.017 541.564 954.945 543.348 955.457 545.163C956.192 547.774 956.992 550.226 958.431 552.582C958.975 553.442 960.35 552.646 959.806 551.786C958.463 549.589 957.663 547.233 956.992 544.749C956.512 542.902 955.552 541.15 955.169 539.304C954.849 539.622 954.529 539.972 954.177 540.291C954.209 540.291 954.241 540.323 954.305 540.323C955.329 540.577 955.744 539.049 954.753 538.762Z" fill="white"/>
<path d="M920.948 568.441C926.929 573.058 937.867 570.956 944.135 568.058C948.421 566.084 951.043 563.569 954.657 560.607C957.344 558.41 960.35 555.926 960.19 552.137C960.158 551.118 958.559 551.118 958.591 552.137C958.815 556.881 949.188 564.078 945.127 565.829C940.905 567.645 937.579 568.982 932.941 569.3C930.479 569.46 924.082 568.855 922.099 567.294C921.268 566.689 920.117 567.804 920.948 568.441Z" fill="white"/>
</g>
<defs>
<clipPath id="clip0_3_8979">
<rect width="108" height="102" fill="white" transform="translate(871)"/>
</clipPath>
<clipPath id="clip1_3_8979">
<rect width="102.739" height="76.4752" fill="white" transform="translate(44 105.711) rotate(-20.936)"/>
</clipPath>
<clipPath id="clip2_3_8979">
<rect width="116" height="81" fill="white" transform="translate(506 904)"/>
</clipPath>
<clipPath id="clip3_3_8979">
<rect width="78.6152" height="62.5918" fill="white" transform="translate(32.2959 700) rotate(31.0628)"/>
</clipPath>
<clipPath id="clip4_3_8979">
<rect width="71" height="62" fill="white" transform="translate(900 518)"/>
</clipPath>
</defs>
</svg>
