<svg width="198" height="198" viewBox="0 0 198 198" fill="none" xmlns="http://www.w3.org/2000/svg">
<path d="M184.906 49.6299L14.2488 150.323C13.8135 149.597 13.3781 148.872 12.9609 148.137L183.618 47.4531C184.053 48.1787 184.48 48.9043 184.906 49.6299Z" fill="#FFA200" fill-opacity="0.28"/>
<path d="M178.784 40.27L8.98855 140.446C8.62575 139.675 8.2811 138.895 7.95459 138.115L177.251 38.2292C177.777 38.9004 178.294 39.5806 178.784 40.27Z" fill="#FFA200" fill-opacity="0.28"/>
<path d="M171.582 31.5447L4.8342 129.916C4.56211 129.099 4.29908 128.274 4.0542 127.44L169.777 29.6582C170.394 30.2749 170.993 30.9098 171.582 31.5447Z" fill="#FFA200" fill-opacity="0.28"/>
<path d="M153.533 16.2349L0.181396 106.715C0.108838 105.781 0.045349 104.838 0 103.885L151.148 14.7021C151.955 15.1919 152.744 15.6998 153.533 16.2349Z" fill="#FFA200" fill-opacity="0.28"/>
<path d="M163.202 23.5089L1.85919 118.705C1.67779 117.826 1.50547 116.937 1.36035 116.048L161.125 21.7947C161.823 22.3479 162.521 22.9193 163.202 23.5089Z" fill="#FFA200" fill-opacity="0.28"/>
<path d="M142.378 9.84072L0 93.8451C0.0544187 92.8202 0.117907 91.7953 0.208605 90.7795L139.602 8.53467C140.536 8.96095 141.462 9.3963 142.378 9.84072Z" fill="#FFA200" fill-opacity="0.28"/>
<path d="M129.308 4.58023L1.70508 79.8686C1.91368 78.7439 2.1495 77.6193 2.41252 76.5037L126.025 3.57349C127.131 3.89093 128.22 4.22651 129.308 4.58023Z" fill="#FFA200" fill-opacity="0.28"/>
<path d="M113.545 0.907151L6.08594 64.305C6.55757 63.008 7.06548 61.7292 7.60059 60.4594L109.436 0.381104C110.815 0.52622 112.184 0.698546 113.545 0.907151Z" fill="#FFA200" fill-opacity="0.28"/>
<path d="M93.0651 0L15.1919 45.9476C16.244 44.2787 17.3505 42.6462 18.5114 41.0499L87.197 0.526048C89.1379 0.290233 91.0879 0.117907 93.0651 0Z" fill="#FFA200" fill-opacity="0.28"/>
<path d="M182.684 151.81C181.632 153.479 180.526 155.121 179.374 156.717L110.652 197.259C108.72 197.495 106.761 197.667 104.793 197.776L182.684 151.81Z" fill="#FFA200" fill-opacity="0.28"/>
<path d="M196.161 117.916C195.953 119.041 195.708 120.157 195.454 121.272L71.8509 194.202C70.7444 193.885 69.647 193.549 68.5586 193.196L196.161 117.916Z" fill="#FFA200" fill-opacity="0.28"/>
<path d="M191.781 133.471C191.31 134.759 190.802 136.038 190.267 137.307L88.4218 197.395C87.0432 197.25 85.6737 197.077 84.3223 196.869L191.781 133.471Z" fill="#FFA200" fill-opacity="0.28"/>
<path d="M197.866 103.922C197.812 104.956 197.748 105.981 197.658 106.996L58.2641 189.241C57.3299 188.815 56.4048 188.38 55.4888 187.935L197.866 103.922Z" fill="#FFA200" fill-opacity="0.28"/>
<path d="M197.866 93.8995L46.7182 183.074C45.9109 182.584 45.1128 182.067 44.3237 181.532L197.685 91.0516C197.757 91.9949 197.821 92.9472 197.866 93.8995Z" fill="#FFA200" fill-opacity="0.28"/>
<path d="M196.506 81.7279L36.742 175.981C36.0436 175.428 35.3453 174.856 34.665 174.267L196.008 79.0704C196.189 79.9502 196.361 80.839 196.506 81.7279Z" fill="#FFA200" fill-opacity="0.28"/>
<path d="M193.813 70.3362L28.0893 168.118C27.4725 167.501 26.8739 166.866 26.2935 166.231L193.023 67.8511C193.305 68.6674 193.568 69.5018 193.813 70.3362Z" fill="#FFA200" fill-opacity="0.28"/>
<path d="M189.912 59.6611L20.6156 159.547C20.0895 158.876 19.5726 158.195 19.0737 157.506L188.869 57.3302C189.241 58.1011 189.586 58.8811 189.912 59.6611Z" fill="#FFA200" fill-opacity="0.28"/>
</svg>
