<svg width="20" height="20" viewBox="0 0 20 20" fill="none" xmlns="http://www.w3.org/2000/svg">
<path d="M18.1746 3.28506C16.8913 6.48506 13.6746 10.8351 10.983 12.9934L9.34127 14.3101C9.13297 14.4601 8.9246 14.5934 8.69127 14.6851C8.69127 14.5351 8.68297 14.3684 8.65793 14.2101C8.56631 13.5101 8.24964 12.8601 7.69127 12.3017C7.12461 11.7351 6.43294 11.4017 5.72461 11.3101C5.55794 11.3017 5.39128 11.2851 5.22461 11.3017C5.31628 11.0434 5.45794 10.8017 5.63294 10.6017L6.93294 8.9601C9.08297 6.2684 13.4496 3.03506 16.6413 1.76006C17.133 1.57673 17.6079 1.71006 17.9079 2.0184C18.2246 2.32673 18.3746 2.80173 18.1746 3.28506Z" stroke="#4A4674" stroke-width="1.5" stroke-linecap="round" stroke-linejoin="round"/>
<path d="M8.6917 14.6825C8.6917 15.5992 8.3417 16.4742 7.68341 17.1409C7.17507 17.6492 6.4834 17.9992 5.6584 18.1076L3.6084 18.3325C2.49173 18.4576 1.5334 17.5076 1.66673 16.3742L1.89173 14.3242C2.09173 12.4992 3.61673 11.3325 5.2334 11.2992C5.40006 11.2909 5.57507 11.2992 5.7334 11.3076C6.44173 11.3992 7.1334 11.7242 7.70007 12.2992C8.25837 12.8576 8.57504 13.5076 8.66674 14.2076C8.67504 14.3659 8.6917 14.5242 8.6917 14.6825Z" stroke="#4A4674" stroke-opacity="0.4" stroke-width="1.5" stroke-linecap="round" stroke-linejoin="round"/>
<path opacity="0.4" d="M11.8675 12.0567C11.8675 9.88166 10.1008 8.11499 7.92578 8.11499" stroke="#1E2D53" stroke-width="1.5" stroke-linecap="round" stroke-linejoin="round"/>
</svg>
