<svg width="52" height="52" viewBox="0 0 52 52" fill="none" xmlns="http://www.w3.org/2000/svg">
<rect width="52" height="52" rx="5" fill="#48D368"/>
<path d="M37.5362 17.4348C35.8037 21.7548 31.4612 27.6273 27.8275 30.5411L25.6112 32.3186C25.33 32.5211 25.0487 32.7011 24.7337 32.8248C24.7337 32.6223 24.7225 32.3973 24.6887 32.1836C24.565 31.2386 24.1375 30.3611 23.3837 29.6073C22.6187 28.8423 21.685 28.3923 20.7287 28.2686C20.5037 28.2573 20.2787 28.2348 20.0537 28.2573C20.1775 27.9086 20.3687 27.5823 20.605 27.3123L22.36 25.0961C25.2625 21.4623 31.1575 17.0973 35.4662 15.3761C36.13 15.1286 36.7712 15.3086 37.1762 15.7248C37.6037 16.1411 37.8062 16.7823 37.5362 17.4348Z" stroke="white" stroke-width="1.5" stroke-linecap="round" stroke-linejoin="round"/>
<path d="M24.7339 32.8214C24.7339 34.0589 24.2614 35.2402 23.3727 36.1402C22.6864 36.8264 21.7527 37.2989 20.6389 37.4452L17.8714 37.7489C16.3639 37.9177 15.0702 36.6352 15.2502 35.1052L15.5539 32.3377C15.8239 29.8739 17.8827 28.2989 20.0652 28.2539C20.2902 28.2427 20.5264 28.2539 20.7402 28.2652C21.6964 28.3889 22.6302 28.8277 23.3952 29.6039C24.1489 30.3577 24.5764 31.2352 24.7002 32.1802C24.7114 32.3939 24.7339 32.6077 24.7339 32.8214V32.8214Z" stroke="white" stroke-width="1.5" stroke-linecap="round" stroke-linejoin="round"/>
<path opacity="0.4" d="M29.0205 29.2765C29.0205 26.3402 26.6355 23.9552 23.6992 23.9552" stroke="white" stroke-width="1.5" stroke-linecap="round" stroke-linejoin="round"/>
</svg>
