<svg width="18" height="20" viewBox="0 0 18 20" fill="none" xmlns="http://www.w3.org/2000/svg">
<path d="M8.00016 9.99996C9.10523 9.99996 10.165 9.56097 10.9464 8.77957C11.7278 7.99817 12.1668 6.93836 12.1668 5.83329C12.1668 4.72822 11.7278 3.66842 10.9464 2.88701C10.165 2.10561 9.10523 1.66663 8.00016 1.66663C6.89509 1.66663 5.83529 2.10561 5.05388 2.88701C4.27248 3.66842 3.8335 4.72822 3.8335 5.83329C3.8335 6.93836 4.27248 7.99817 5.05388 8.77957C5.83529 9.56097 6.89509 9.99996 8.00016 9.99996V9.99996Z" stroke="white" stroke-width="1.5" stroke-linecap="round" stroke-linejoin="round"/>
<path opacity="0.4" d="M0.841797 18.3333C0.841797 15.1083 4.05013 12.5 8.00013 12.5C8.80013 12.5 9.57513 12.6083 10.3001 12.8083" stroke="white" stroke-width="1.5" stroke-linecap="round" stroke-linejoin="round"/>
<path d="M14.2432 14.9833H11.7598M12.9998 13.7666V16.2583M16.3332 15C16.3332 15.2666 16.2998 15.525 16.2332 15.775C16.1582 16.1083 16.0248 16.4333 15.8498 16.7166C15.5561 17.2104 15.1388 17.6191 14.639 17.9026C14.1393 18.186 13.5744 18.3345 12.9998 18.3333C12.1794 18.3357 11.3881 18.0293 10.7832 17.475C10.5332 17.2583 10.3165 17 10.1498 16.7166C9.83263 16.2003 9.66528 15.6059 9.66651 15C9.66596 14.5621 9.75181 14.1284 9.91913 13.7237C10.0865 13.319 10.332 12.9514 10.6416 12.6417C10.9512 12.3321 11.3189 12.0866 11.7236 11.9192C12.1283 11.7519 12.562 11.6661 12.9998 11.6666C13.9832 11.6666 14.8748 12.0916 15.4748 12.775C16.0082 13.3666 16.3332 14.15 16.3332 15Z" stroke="white" stroke-width="1.5" stroke-miterlimit="10" stroke-linecap="round" stroke-linejoin="round"/>
</svg>
