<svg width="20" height="20" viewBox="0 0 20 20" fill="none" xmlns="http://www.w3.org/2000/svg">
<g clip-path="url(#clip0_73_2363)">
<path d="M18.3327 8.33341V12.5001C18.3327 16.6667 16.666 18.3334 12.4993 18.3334H7.49935C3.33268 18.3334 1.66602 16.6667 1.66602 12.5001V7.50008C1.66602 3.33341 3.33268 1.66675 7.49935 1.66675H11.666" stroke="white" stroke-width="1.5" stroke-linecap="round" stroke-linejoin="round"/>
<path d="M18.3327 8.33341H14.9993C12.4993 8.33341 11.666 7.50008 11.666 5.00008V1.66675L18.3327 8.33341Z" stroke="white" stroke-width="1.5" stroke-linecap="round" stroke-linejoin="round"/>
<path opacity="0.4" d="M5.51681 13.1084C5.24181 12.25 5.56681 11.1917 6.45848 10.9C6.93348 10.75 7.51681 10.875 7.84181 11.3334C8.15014 10.8584 8.75848 10.75 9.22514 10.9C10.1251 11.1917 10.4418 12.25 10.1751 13.1084C9.75014 14.4667 8.25848 15.175 7.84181 15.175C7.43348 15.1667 5.95848 14.475 5.51681 13.1084Z" stroke="white" stroke-width="1.5" stroke-linecap="round" stroke-linejoin="round"/>
</g>
<defs>
<clipPath id="clip0_73_2363">
<rect width="20" height="20" fill="white"/>
</clipPath>
</defs>
</svg>
