<svg width="20" height="20" viewBox="0 0 20 20" fill="none" xmlns="http://www.w3.org/2000/svg">
<path d="M1.6665 18.3333H18.3332M12.5082 18.325L2.50817 18.3417L2.49984 5.89166C2.49984 5.33333 2.78317 4.81666 3.2415 4.50833L6.57484 2.28333C7.13317 1.90833 7.8665 1.90833 8.42484 2.28333L11.7582 4.50833C12.2248 4.81666 12.4998 5.33333 12.4998 5.89166L12.5082 18.325V18.325Z" stroke="white" stroke-width="1.5" stroke-miterlimit="10" stroke-linecap="round" stroke-linejoin="round"/>
<path opacity="0.4" d="M16.6499 18.3417V15" stroke="white" stroke-width="1.5" stroke-miterlimit="10" stroke-linecap="round" stroke-linejoin="round"/>
<path d="M2.5 11.6667H12.5M16.6667 10C15.75 10 15 10.75 15 11.6667V13.3333C15 14.25 15.75 15 16.6667 15C17.5833 15 18.3333 14.25 18.3333 13.3333V11.6667C18.3333 10.75 17.5833 10 16.6667 10Z" stroke="white" stroke-width="1.5" stroke-miterlimit="10" stroke-linecap="round" stroke-linejoin="round"/>
<path opacity="0.4" d="M7.5 18.3333V15.2083M7.5 8.75C7.83152 8.75 8.14946 8.6183 8.38388 8.38388C8.6183 8.14946 8.75 7.83152 8.75 7.5C8.75 7.16848 8.6183 6.85054 8.38388 6.61612C8.14946 6.3817 7.83152 6.25 7.5 6.25C7.16848 6.25 6.85054 6.3817 6.61612 6.61612C6.3817 6.85054 6.25 7.16848 6.25 7.5C6.25 7.83152 6.3817 8.14946 6.61612 8.38388C6.85054 8.6183 7.16848 8.75 7.5 8.75Z" stroke="white" stroke-width="1.5" stroke-miterlimit="10" stroke-linecap="round" stroke-linejoin="round"/>
</svg>
