<svg width="17" height="22" viewBox="0 0 17 22" fill="none" xmlns="http://www.w3.org/2000/svg">
<path d="M16 5.34783V19.6957C16 20.0416 15.8606 20.3734 15.6123 20.618C15.3641 20.8626 15.0275 21 14.6765 21H2.32353C1.97251 21 1.63586 20.8626 1.38765 20.618C1.13944 20.3734 1 20.0416 1 19.6957V2.30435C1 1.95841 1.13944 1.62665 1.38765 1.38203C1.63586 1.13742 1.97251 1 2.32353 1H11.5882L16 5.34783Z" stroke="#4A4674" stroke-width="1.5" stroke-linecap="round" stroke-linejoin="round"/>
<path d="M11.5879 1V4.04348C11.5879 4.38941 11.7273 4.72118 11.9755 4.96579C12.2238 5.2104 12.5604 5.34783 12.9114 5.34783H15.9997" stroke="#4A4674" stroke-width="1.5" stroke-linecap="round" stroke-linejoin="round"/>
<path opacity="0.4" d="M10.7058 11.4348V8.82608H4.5293V14.0435H6.294" stroke="#4A4674" stroke-width="1.5" stroke-linecap="round" stroke-linejoin="round"/>
<path opacity="0.4" d="M12.4704 11.4348H6.29395V16.6522H12.4704V11.4348Z" stroke="#4A4674" stroke-width="1.5" stroke-linecap="round" stroke-linejoin="round"/>
</svg>
