<svg width="22" height="22" viewBox="0 0 22 22" fill="none" xmlns="http://www.w3.org/2000/svg">
<path d="M21 5.34783V19.6957C21 20.0416 20.8141 20.3734 20.4831 20.618C20.1521 20.8626 19.7033 21 19.2353 21H2.76471C2.29668 21 1.84781 20.8626 1.51687 20.618C1.18592 20.3734 1 20.0416 1 19.6957V2.30435C1 1.95841 1.18592 1.62665 1.51687 1.38203C1.84781 1.13742 2.29668 1 2.76471 1H15.1176L21 5.34783Z" stroke="#4A4674" stroke-width="1.5" stroke-linecap="round" stroke-linejoin="round"/>
<path d="M15 1V4.5C15 4.89782 15.158 5.27935 15.4393 5.56065C15.7207 5.84196 16.1022 6 16.5 6H20" stroke="#4A4674" stroke-width="1.5" stroke-linecap="round" stroke-linejoin="round"/>
<path opacity="0.4" d="M13 11.5V8H6V15H7.99998" stroke="#4A4674" stroke-width="1.5" stroke-linecap="round" stroke-linejoin="round"/>
<path opacity="0.4" d="M15 11H8V17H15V11Z" stroke="#4A4674" stroke-width="1.5" stroke-linecap="round" stroke-linejoin="round"/>
</svg>
