<svg width="20" height="20" viewBox="0 0 20 20" fill="none" xmlns="http://www.w3.org/2000/svg">
<path d="M17 4.76812V17.2029C17 17.5027 16.8792 17.7903 16.664 18.0023C16.4489 18.2143 16.1572 18.3333 15.853 18.3333H5.14706C4.84284 18.3333 4.55108 18.2143 4.33596 18.0023C4.12085 17.7903 4 17.5027 4 17.2029V2.13044C4 1.83062 4.12085 1.5431 4.33596 1.33109C4.55108 1.1191 4.84284 1 5.14706 1H13.1764L17 4.76812Z" stroke="#4A4674" stroke-width="1.5" stroke-linecap="round" stroke-linejoin="round"/>
<path d="M13.1758 1V3.63768C13.1758 3.93749 13.2966 4.22502 13.5117 4.43702C13.7269 4.64901 14.0186 4.76812 14.3228 4.76812H16.9993" stroke="#4A4674" stroke-width="1.5" stroke-linecap="round" stroke-linejoin="round"/>
<path opacity="0.4" d="M12.4116 10.0435V7.7826H7.05859V12.3044H8.588" stroke="#4A4674" stroke-width="1.5" stroke-linecap="round" stroke-linejoin="round"/>
<path opacity="0.4" d="M13.9408 10.0435H8.58789V14.5652H13.9408V10.0435Z" stroke="#4A4674" stroke-width="1.5" stroke-linecap="round" stroke-linejoin="round"/>
</svg>
