<svg width="44" height="52" viewBox="0 0 44 52" fill="none" xmlns="http://www.w3.org/2000/svg">
<path d="M22.0001 26C25.1203 26 28.1126 24.7605 30.319 22.5542C32.5253 20.3479 33.7648 17.3555 33.7648 14.2353C33.7648 11.1151 32.5253 8.12269 30.319 5.91638C28.1126 3.71007 25.1203 2.47058 22.0001 2.47058C18.8799 2.47058 15.8875 3.71007 13.6812 5.91638C11.4748 8.12269 10.2354 11.1151 10.2354 14.2353C10.2354 17.3555 11.4748 20.3479 13.6812 22.5542C15.8875 24.7605 18.8799 26 22.0001 26V26Z" stroke="#201B53" stroke-width="3" stroke-linecap="round" stroke-linejoin="round"/>
<path opacity="0.4" d="M42 49.5294C42 40.4235 33.0361 33.0588 22 33.0588C10.9639 33.0588 2 40.4235 2 49.5294" stroke="#201B53" stroke-width="3" stroke-linecap="round" stroke-linejoin="round"/>
</svg>
