<svg width="20" height="20" viewBox="0 0 20 20" fill="none" xmlns="http://www.w3.org/2000/svg">
<path d="M10.0002 9.99996C11.1052 9.99996 12.165 9.56097 12.9464 8.77957C13.7278 7.99817 14.1668 6.93836 14.1668 5.83329C14.1668 4.72822 13.7278 3.66842 12.9464 2.88701C12.165 2.10561 11.1052 1.66663 10.0002 1.66663C8.89509 1.66663 7.83529 2.10561 7.05388 2.88701C6.27248 3.66842 5.8335 4.72822 5.8335 5.83329C5.8335 6.93836 6.27248 7.99817 7.05388 8.77957C7.83529 9.56097 8.89509 9.99996 10.0002 9.99996V9.99996Z" stroke="white" stroke-width="1.5" stroke-linecap="round" stroke-linejoin="round"/>
<path opacity="0.4" d="M17.1585 18.3333C17.1585 15.1083 13.9501 12.5 10.0001 12.5C6.05013 12.5 2.8418 15.1083 2.8418 18.3333" stroke="white" stroke-width="1.5" stroke-linecap="round" stroke-linejoin="round"/>
</svg>
