<svg width="92" height="92" viewBox="0 0 92 92" fill="none" xmlns="http://www.w3.org/2000/svg">
<rect width="92" height="92" rx="15" fill="#DAFFE2"/>
<g clip-path="url(#clip0_99_4559)">
<path d="M51.3691 67.9979C63.3144 67.9979 72.9979 58.1491 72.9979 46C72.9979 33.8509 63.3144 24.0021 51.3691 24.0021C39.4238 24.0021 29.7402 33.8509 29.7402 46C29.7402 58.1491 39.4238 67.9979 51.3691 67.9979Z" fill="#FFDD33"/>
<path opacity="0.46" d="M69.6827 54.8983C62.3653 60.4035 52.4325 62.1698 43.7265 59.4287C39.5588 58.1164 35.9748 55.5981 32.9684 52.4154C31.8543 51.2365 30.8712 49.9617 29.8984 48.6703C31.0699 58.483 38.6823 66.594 48.7625 67.8375C59.0987 69.1143 68.6157 62.751 71.8413 53.109C71.1532 53.7339 70.4344 54.3317 69.6827 54.8983Z" fill="#F7D719"/>
<path d="M40.2413 33.5086C47.5157 31.7923 55.6381 32.0443 62.7262 34.4793C66.0726 35.629 69.2961 37.3662 71.9114 39.8032C72.0097 39.8949 72.108 39.9907 72.2063 40.0844C69.9249 31.7777 62.9228 25.2664 53.9771 24.1625C44.4294 22.9835 35.5821 28.3221 31.7441 36.7434C34.4045 35.2124 37.4109 34.1772 40.2413 33.5086Z" fill="#FFE67D"/>
<path d="M58.6806 52.4258C58.013 52.5737 57.3269 52.6362 56.6449 52.6487C55.2011 52.6737 53.7388 52.5112 52.3319 52.1821C49.6408 51.553 47.0992 50.1804 45.4363 47.8892C44.5823 46.7102 44.0191 45.3334 43.7979 43.8857C43.7815 43.7837 43.6996 43.7504 43.6238 43.767C43.0217 45.1209 42.6858 46.7165 42.5957 48.1933C42.5998 49.0014 42.6715 49.8055 42.7821 50.5637C43.1036 52.757 43.7364 55.069 45.0041 56.9C45.6165 57.7852 46.3661 58.5705 47.1771 59.2683C47.9799 59.9598 48.8912 60.568 49.9419 60.7638C52.0963 61.1679 54.0235 59.7411 55.4346 58.2559C55.7704 57.9018 56.0981 57.5352 56.4237 57.1687C56.9624 56.448 57.546 55.7585 58.1011 55.0482C58.9059 54.0172 59.5961 52.9278 60.2986 51.8405C59.7681 52.0675 59.2582 52.2987 58.6806 52.4258Z" fill="#38030E"/>
<path d="M56.6441 52.6487C55.2002 52.6737 53.738 52.5112 52.331 52.1821C49.6399 51.553 47.0984 50.1804 45.4354 47.8892C44.5814 46.7102 44.0182 45.3334 43.797 43.8857C43.7806 43.7837 43.6987 43.7504 43.6229 43.767C43.0577 45.0397 42.728 46.5227 42.6133 47.9225C43.5103 49.7409 44.9255 51.3323 46.4123 52.6341C48.5709 54.5254 51.0899 56.4292 54.0554 56.3667C54.6022 55.6335 55.1757 54.8899 55.743 54.1713C56.1362 53.6756 56.5232 53.1444 56.9369 52.6424C56.8407 52.6424 56.7424 52.6466 56.6441 52.6487Z" fill="#FFFDF8"/>
<path d="M47.1761 53.0611C46.5576 51.5614 46.1419 49.9867 45.8306 48.3911C45.6954 48.2287 45.5623 48.062 45.4374 47.8892C44.5834 46.7102 44.0202 45.3334 43.799 43.8857C43.7826 43.7837 43.7007 43.7504 43.6249 43.767C43.0596 45.0397 42.7299 46.5227 42.6152 47.9225C43.5123 49.7409 44.9274 51.3323 46.4143 52.6341C46.7112 52.8945 47.0143 53.1548 47.3256 53.4089C47.2703 53.2861 47.2212 53.1715 47.1761 53.0611Z" fill="#F2E2E6"/>
<path d="M50.8879 58.9995C50.4967 57.2915 49.1553 55.6855 47.2998 55.8772C46.6465 55.9438 46.4417 56.0376 46.071 55.4148C45.7781 54.9232 45.7269 54.2983 45.3706 53.8401C44.9016 53.2339 44.0578 53.0402 43.3574 53.2631C43.7302 54.5587 44.2544 55.8126 45.004 56.8957C45.6164 57.781 46.3659 58.5663 47.1769 59.264C47.9797 59.9556 48.8911 60.5638 49.9417 60.7596C50.2796 60.8221 50.6135 60.8367 50.9391 60.8158C51.0231 60.2409 51.0353 59.6515 50.8879 58.9995Z" fill="#F23B44"/>
<path d="M49.2884 59.1079C48.5696 58.1581 48.0084 57.0396 47.736 55.8689C47.5947 55.8627 47.4493 55.8627 47.2998 55.8773C46.6465 55.9439 46.4417 56.0377 46.071 55.4149C45.9993 55.292 45.942 55.1628 45.8908 55.0295C45.8539 55.0545 45.815 55.0795 45.7741 55.0983C45.5181 55.2941 45.1453 55.3336 44.9262 55.0753C44.7419 54.9858 44.576 54.84 44.4654 54.6421C44.2135 54.1922 44.0988 53.6923 44.0701 53.182C43.8285 53.1653 43.5847 53.1903 43.3574 53.2632C43.7302 54.5588 44.2544 55.8127 45.004 56.8958C45.6164 57.7811 46.3659 58.5663 47.1769 59.2641C47.9797 59.9557 48.8911 60.5639 49.9417 60.7597C50.2796 60.8222 50.6135 60.8368 50.9391 60.8159C50.9473 60.7597 50.9534 60.7055 50.9616 60.6493C50.2919 60.2931 49.7267 59.6891 49.2884 59.1079Z" fill="#CE192B"/>
<path d="M60.7898 53.0633C60.7652 52.7071 60.6956 52.3488 60.5604 52.0176C60.4375 51.7177 60.2614 51.4553 60.0259 51.2386C59.7945 51.0262 59.5282 50.9304 59.221 50.897C59.0941 50.8824 59.0695 51.047 59.1678 51.1032C59.2763 51.1657 59.3746 51.2449 59.4566 51.3386C59.5405 51.4344 59.6388 51.5136 59.7187 51.6136C59.8825 51.8135 60.0177 52.0426 60.1078 52.2843C60.2123 52.5655 60.2573 52.8675 60.2737 53.1653C60.2819 53.3216 60.286 53.4757 60.2983 53.6319C60.3126 53.7861 60.288 53.9694 60.3822 54.0985C60.4334 54.1672 60.5584 54.1943 60.6239 54.1277C60.7529 53.9964 60.755 53.8027 60.7796 53.6257C60.8082 53.4382 60.8041 53.2528 60.7898 53.0633Z" fill="#38030E"/>
<path d="M45.1817 43.8566C44.9318 43.2443 44.0676 43.3567 43.5822 43.5692C43.3057 43.69 43.0497 43.8629 42.8285 44.0691C42.72 44.1712 42.6155 44.2816 42.5377 44.4086C42.4435 44.5607 42.4189 44.6877 42.4681 44.8627C42.4947 44.9606 42.6196 44.946 42.6729 44.8877C42.8306 44.7127 42.9514 44.5253 43.1439 44.3815C43.3364 44.2357 43.5453 44.0983 43.7665 44.0004C43.9672 43.9108 44.1864 43.8546 44.4075 43.8712C44.5263 43.8796 44.6287 43.917 44.7434 43.9462C44.852 43.9754 44.9646 43.9837 45.0731 44.0066C45.1551 44.0233 45.2104 43.9254 45.1817 43.8566Z" fill="#38030E"/>
<path d="M50.1736 34.9207C49.3749 34.6187 48.2997 35.5477 47.7713 36.9933C47.5706 37.5432 47.4805 38.0847 47.4866 38.5659C47.6525 38.6596 47.8163 38.7679 47.9761 38.8929C48.2997 39.1449 48.7338 39.5928 49.0656 40.0989C49.678 39.8261 50.3006 39.0804 50.6631 38.0868C51.1914 36.6392 50.9723 35.2228 50.1736 34.9207Z" fill="#38030E"/>
<path d="M62.0433 44.5107C62.3607 44.1483 62.6433 43.6713 62.8461 43.1172C63.3745 41.6716 63.1533 40.2552 62.3546 39.9532C61.5559 39.6512 60.4807 40.5802 59.9523 42.0257C59.6123 42.9589 59.5836 43.8775 59.8212 44.494C60.5319 44.2961 61.3121 44.3107 62.0433 44.5107Z" fill="#38030E"/>
<path d="M52.9725 31.3923C52.5055 30.8007 51.8072 30.4446 51.0617 30.4029C50.3326 30.3612 49.5789 30.4779 48.897 30.7424C48.7372 30.8049 48.5816 30.8903 48.4382 30.9861C48.2518 31.1132 48.2027 31.1632 48.045 31.3131C47.8812 31.4673 47.789 31.6298 47.6989 31.8339C47.6559 31.9318 47.6313 32.0463 47.6477 32.1526C47.6579 32.1921 47.6702 32.2317 47.6805 32.2713C47.66 32.2151 47.6538 32.2151 47.662 32.2713C47.6661 32.3504 47.7398 32.4442 47.8136 32.4671C47.8627 32.4879 47.8668 32.4858 47.8259 32.4608C47.8934 32.5129 47.9692 32.5442 48.0532 32.5546C48.1597 32.5712 48.2641 32.5504 48.3665 32.5379C48.4116 32.5296 48.4177 32.5296 48.3788 32.54C48.4669 32.5546 48.5529 32.5462 48.6369 32.515C48.7229 32.4963 48.8069 32.4692 48.8908 32.44C49.1345 32.4192 49.2984 32.3442 49.5421 32.2609C49.5953 32.2421 49.6465 32.2234 49.6998 32.2067C49.6301 32.2255 49.6424 32.2213 49.7366 32.1963C49.8452 32.1692 49.9537 32.1442 50.0623 32.1234C50.2712 32.0838 50.4821 32.0609 50.6951 32.0526C50.691 32.0568 50.9286 32.0588 50.9572 32.0588C51.0678 32.0651 51.1764 32.0734 51.2849 32.0942C51.5143 32.138 51.7621 32.313 51.9178 32.5088C52.0959 32.7295 52.055 32.7545 52.2311 33.0003C52.3499 33.1649 52.4748 33.3169 52.6346 33.4419C52.825 33.5898 53.1588 33.569 53.2981 33.3503C53.7057 32.7045 53.4046 31.9401 52.9725 31.3923Z" fill="#38030E"/>
<path d="M66.2307 38.6055C66.1816 37.4953 65.3562 36.5267 64.3916 36.0789C63.8817 35.8414 63.3246 35.756 62.7717 35.8393C62.4911 35.881 62.19 35.9477 61.9545 36.1122C61.891 36.1559 61.8214 36.2122 61.7743 36.2768C61.7333 36.3267 61.7067 36.3851 61.6965 36.4476C61.6842 36.4809 61.678 36.5142 61.678 36.5496C61.6657 36.5913 61.6596 36.635 61.6678 36.6808C61.676 36.7308 61.6944 36.7683 61.719 36.81C61.7354 36.8371 61.7559 36.8558 61.7804 36.8725C61.7907 36.8829 61.8173 36.91 61.8664 36.9537C61.9729 37.037 62.1163 37.0579 62.2474 37.0662C62.3641 37.0724 62.4808 37.062 62.5996 37.0579C62.6037 37.0599 62.6775 37.0599 62.6938 37.062C62.7368 37.0641 62.7799 37.0683 62.8229 37.0724C63.0174 37.0912 63.2079 37.137 63.3983 37.1828C63.4106 37.1849 63.4557 37.1974 63.4823 37.2057C63.5233 37.2182 63.5642 37.2328 63.6052 37.2495C63.7076 37.287 63.8059 37.3349 63.9042 37.3828C63.9124 37.387 63.9165 37.389 63.9206 37.3911C63.9677 37.4203 64.0127 37.4495 64.0578 37.4828C64.1336 37.5369 64.2053 37.5953 64.2728 37.6557C64.2933 37.6744 64.3179 37.6973 64.3281 37.7077C64.3466 37.7286 64.365 37.7494 64.3834 37.7702C64.451 37.8473 64.5166 37.9285 64.5759 38.0118C64.6005 38.0452 64.623 38.0806 64.6456 38.1139C64.6538 38.1264 64.6579 38.1327 64.664 38.141C64.664 38.1431 64.664 38.1431 64.6661 38.1431C64.7091 38.2264 64.7521 38.3076 64.7889 38.393C64.8709 38.5805 64.961 38.7659 65.0306 38.9596C65.0736 39.0762 65.1699 39.1845 65.2825 39.2554C65.3132 39.2866 65.3439 39.3158 65.3788 39.3408C65.3849 39.3512 65.391 39.3637 65.3972 39.3741C65.5139 39.6032 65.7945 39.5865 65.9112 39.3699C65.9174 39.3595 65.9215 39.3491 65.9276 39.3366C65.9317 39.3345 65.9317 39.3345 65.9358 39.3324C65.987 39.2949 66.0259 39.247 66.0525 39.1908C66.0689 39.1637 66.0833 39.1366 66.0956 39.1075C66.198 38.9658 66.2389 38.7867 66.2307 38.6055Z" fill="#38030E"/>
<path d="M38.8712 51.7802C39.3136 51.4073 39.7027 50.9678 40.012 50.4846C40.6366 49.5035 40.9745 48.3391 40.7574 47.1789C40.5629 46.1396 39.9587 45.1085 39.0064 44.5274C38.4412 44.1837 37.8145 43.9858 37.1591 43.8879C36.5693 43.8004 35.9365 43.7504 35.3405 43.79C34.9493 43.815 34.5438 43.8712 34.1629 43.9816C34.1691 43.9712 34.1772 43.9608 34.1834 43.9504C34.8613 42.9068 35.4531 41.8029 35.8156 40.6156C36.4792 38.4327 36.387 36.0311 34.9862 34.0898C34.6483 33.6232 34.2346 33.1941 33.7676 32.8421C32.6105 31.9652 30.9639 32.3422 29.8887 33.2191C28.748 34.1481 28.3835 35.7374 28.5821 37.0184C28.7009 37.7891 29.2068 38.1702 28.9856 38.9243C28.0312 42.1861 24.82 43.0964 22.8027 45.448C21.3036 47.1956 20.3267 49.3785 20.0686 51.6406C19.8085 53.9173 20.3103 56.2002 21.5596 58.181C22.7453 60.0661 24.5865 61.6095 26.7 62.4719C27.9124 62.9655 29.215 63.2259 30.5257 63.2176C31.2077 63.2134 31.8814 63.1197 32.5266 62.9176C32.8542 62.8156 33.1532 62.6698 33.4379 62.4844C33.7369 62.2886 33.9253 62.0011 34.1342 61.7241C34.1772 61.6679 34.1957 61.6095 34.1957 61.5512C34.3431 61.4887 34.4906 61.4221 34.6339 61.3429C35.2524 61.0055 35.789 60.5389 36.1843 59.9724C36.5754 59.41 36.8417 58.7913 36.9502 58.1206C37.0158 57.7124 37.0321 57.2208 36.9195 56.7771C37.1407 56.5751 37.3434 56.348 37.5359 56.1231C37.9578 55.6294 38.3388 55.0733 38.562 54.4672C38.7873 53.8569 38.8856 53.1757 38.7627 52.5279C38.7258 52.3301 38.6664 52.1509 38.5886 51.9739C38.6972 51.9156 38.7934 51.8468 38.8712 51.7802Z" fill="#FFDD33"/>
<path d="M40.0125 50.4846C40.6371 49.5036 40.975 48.3392 40.7579 47.179C40.7334 47.0436 40.7006 46.9082 40.6596 46.7728C40.0288 47.958 39.1154 48.9807 37.8662 49.4827C35.4885 50.4367 33.2725 49.2536 30.9849 48.6683C30.9665 48.6558 30.9501 48.6412 30.9317 48.6287C30.8518 48.5808 30.7473 48.6287 30.7576 48.7308C30.817 49.3244 31.4764 49.8514 31.9557 50.1159C32.6028 50.4742 33.3299 50.7221 34.0241 50.972C34.6754 51.2053 35.7137 51.7302 36.3978 51.8406C37.2415 52.4988 37.5528 53.1633 37.0552 54.2464C36.4592 55.5441 34.7594 55.8149 33.5265 55.5399C32.9018 55.4004 32.2137 55.2504 31.5297 55.0504C32.3509 56.0336 32.8383 57.2208 32.5004 58.6018C32.1154 60.1724 30.8026 61.2555 29.6087 60.3265C29.2359 61.5284 27.8167 62.2303 26.5039 62.3845C26.5694 62.4115 26.6329 62.4428 26.6985 62.4678C27.9109 62.9614 29.2134 63.2218 30.5241 63.2135C31.2061 63.2093 31.8799 63.1156 32.525 62.9135C32.8527 62.8115 33.1517 62.6657 33.4364 62.4803C33.7354 62.2845 33.9238 61.997 34.1327 61.72C34.1757 61.6638 34.1941 61.6054 34.1941 61.5471C34.3416 61.4846 34.489 61.418 34.6324 61.3388C35.2509 61.0014 35.7875 60.5348 36.1827 59.9682C36.5739 59.4058 36.8401 58.7872 36.9487 58.1165C37.0142 57.7083 37.0306 57.2167 36.9179 56.773C37.1391 56.571 37.3419 56.3439 37.5344 56.119C37.9563 55.6253 38.3372 55.0692 38.5604 54.463C38.7857 53.8527 38.884 53.1716 38.7611 52.5238C38.7243 52.3259 38.6649 52.1468 38.5871 51.9698C38.6915 51.9073 38.7878 51.8385 38.8676 51.7719C39.3141 51.4074 39.7053 50.9679 40.0125 50.4846Z" fill="#FFB217"/>
<path d="M41.3523 47.7226C41.2478 46.6458 40.7358 45.6439 39.9084 44.8982C39.462 44.4962 38.9274 44.065 38.3704 43.813C37.8051 43.5588 37.1539 43.5047 36.5415 43.4901C35.9251 43.4755 35.3086 43.5234 34.7065 43.6338C34.729 43.6067 34.7536 43.5797 34.7761 43.5526C35.0321 43.2318 35.239 42.8819 35.411 42.509C35.7674 41.73 35.9722 40.8802 36.0848 40.0303C36.2978 38.4411 36.2241 36.7101 35.6343 35.2063C35.1919 34.0815 34.4874 33.0275 33.3671 32.5505C32.9309 32.3651 32.4578 32.2651 31.9847 32.261C31.0795 32.2506 30.1948 32.5901 29.5333 33.2212C28.8493 33.8753 28.4724 34.7501 28.456 35.7062C28.4376 36.781 28.7817 37.7974 28.9455 38.8472C28.837 39.0264 28.7837 39.2617 28.6957 39.4471C28.5707 39.7075 28.4417 39.9637 28.2881 40.2074C27.9871 40.6823 27.6246 41.1176 27.2211 41.5071C26.3753 42.3257 25.3595 42.8944 24.4543 43.6317C24.3867 43.6859 24.4502 43.8088 24.5321 43.7692C25.6134 43.2318 26.6456 42.4715 27.4996 41.6092C27.8908 41.2155 28.2471 40.7802 28.538 40.3032C28.6854 40.0616 28.8226 39.8116 28.923 39.5471C28.9476 39.4825 28.9762 39.4117 29.0049 39.3346C29.0336 39.6783 29.0336 40.0262 28.9906 40.3678C29.1442 39.9512 29.265 39.5179 29.3326 39.0514C29.2363 38.3348 29.0582 37.6225 28.9455 37.0059C28.7632 36.0082 28.7264 34.948 29.3039 34.069C29.7852 33.3358 30.5614 32.815 31.4195 32.6755C31.954 32.588 32.4967 32.6463 33.0128 32.8088C33.7337 33.0358 34.2846 33.5316 34.7229 34.171C34.9338 34.4772 35.1038 34.8084 35.2451 35.1521C35.5257 35.8415 35.667 36.5831 35.7285 37.3246C35.792 38.0807 35.753 38.8451 35.6773 39.5992C35.5974 40.4032 35.4417 41.2051 35.153 41.9612C34.9932 42.3757 34.7925 42.7798 34.5509 43.1506C34.4055 43.3735 34.2129 43.5672 34.0512 43.7775C33.873 43.8234 33.6969 43.8754 33.5248 43.94C33.2279 44.0525 32.892 44.1691 32.6462 44.367C32.3493 44.0358 32.1322 43.6442 31.9622 43.2297C31.9008 43.0818 31.6857 43.1527 31.698 43.2985C31.7513 44.0233 32.2407 44.7045 32.8531 45.1273C33.2012 45.3689 33.5986 45.5335 34.0163 45.6251C34.4075 45.7105 34.9031 45.7688 35.2431 45.5314C35.3066 45.4876 35.2984 45.3731 35.2165 45.3481C34.8683 45.2439 34.4894 45.2856 34.131 45.2148C33.7624 45.1419 33.4081 44.9919 33.1029 44.7774C33.0067 44.7086 32.9186 44.6357 32.8347 44.5586C33.0395 44.5087 33.2361 44.4295 33.4388 44.367C33.5719 44.3274 33.7071 44.2879 33.8423 44.2504C33.8566 44.2629 33.875 44.2733 33.8955 44.267C34.0102 44.2441 34.0942 44.2108 34.1761 44.1629C34.215 44.1525 34.2539 44.1421 34.2928 44.1337C34.8192 44.0088 35.3598 43.9338 35.9025 43.9088C36.4862 43.8817 37.0945 43.9004 37.6679 44.0275C38.2557 44.1566 38.7206 44.492 39.1629 44.8711C39.9432 45.5397 40.4941 46.3895 40.6928 47.3748C40.8771 48.2892 40.7338 49.2411 40.2463 50.0409C39.9801 50.4763 39.6258 50.8637 39.2121 51.1741C38.6387 51.6031 38.0734 51.7927 37.3402 51.751C36.9491 51.7281 36.56 51.674 36.177 51.6031C35.4643 51.4698 34.7639 51.2886 34.0901 51.0199C32.7118 50.4721 31.5076 49.6514 30.3893 48.7099C30.2665 48.6058 30.0862 48.7808 30.1907 48.8995C31.1881 50.0493 32.5541 50.8991 33.9856 51.4657C34.6983 51.7469 35.4356 51.9781 36.1934 52.1114C36.8651 52.2301 37.8256 52.4301 38.5035 52.2239C38.5199 52.2759 38.5342 52.328 38.5445 52.3822C38.5936 52.6217 38.6059 52.8654 38.5875 53.1091C38.5567 53.5528 38.4461 53.9881 38.3028 54.4089C38.0366 55.1858 37.6823 56.1002 36.7975 56.3835C35.9374 56.6584 34.8949 56.3835 34.0512 56.1419C33.1091 55.8732 32.1977 55.4941 31.3519 55.0129C30.3934 54.4693 29.5108 53.7902 28.6834 53.0799C28.5543 52.9696 28.368 53.1529 28.4745 53.2799C29.8425 54.9046 31.8741 56.019 33.9467 56.5939C34.7577 56.8188 35.6691 57.0459 36.519 56.9251C36.6849 57.8332 36.4391 58.7414 36.0213 59.5516C35.6343 60.3015 35.0526 60.9805 34.1986 61.2555C32.3308 61.8575 30.5593 60.5785 29.2732 59.4079C28.4356 58.6456 27.6614 57.8166 26.9385 56.9563C26.8095 56.8042 26.5698 56.9792 26.6886 57.1396C27.3542 58.0165 28.0935 58.833 28.8923 59.6016C29.6418 60.3202 30.4692 60.9993 31.4441 61.4159C32.3022 61.7825 33.2873 61.9199 34.1925 61.6804C35.0997 61.4409 35.7674 60.8056 36.2241 60.0432C36.7934 59.0934 37.1416 57.9478 36.9245 56.8438C37.9096 56.5543 38.3745 55.6503 38.694 54.7838C38.8865 54.2568 39.0462 53.7048 39.081 53.1424C39.0995 52.8154 39.0974 52.3947 38.9704 52.0447C39.6012 51.7323 40.1501 51.2157 40.5351 50.6929C41.17 49.8201 41.4547 48.7787 41.3523 47.7226Z" fill="#38030E"/>
</g>
<defs>
<clipPath id="clip0_99_4559">
<rect width="53" height="44" fill="white" transform="translate(20 24)"/>
</clipPath>
</defs>
</svg>
