<svg width="20" height="20" viewBox="0 0 20 20" fill="none" xmlns="http://www.w3.org/2000/svg">
<path d="M8.37477 2.10922L3.35811 5.38422C1.74977 6.43422 1.74977 8.78422 3.35811 9.83422L8.37477 13.1092C9.27477 13.7009 10.7581 13.7009 11.6581 13.1092L16.6498 9.83422C18.2498 8.78422 18.2498 6.44255 16.6498 5.39255L11.6581 2.11755C10.7581 1.51755 9.27477 1.51755 8.37477 2.10922Z" stroke="white" stroke-width="1.5" stroke-linecap="round" stroke-linejoin="round"/>
<path opacity="0.4" d="M4.69242 10.8983L4.68408 14.8067C4.68408 15.865 5.50075 16.9983 6.50075 17.3317L9.15908 18.215C9.61742 18.365 10.3757 18.365 10.8424 18.215L13.5007 17.3317C14.5007 16.9983 15.3174 15.865 15.3174 14.8067V10.94M17.8316 12.5V7.5" stroke="white" stroke-width="1.5" stroke-linecap="round" stroke-linejoin="round"/>
</svg>
