<svg width="20" height="20" viewBox="0 0 20 20" fill="none" xmlns="http://www.w3.org/2000/svg">
<path d="M10.442 17.015H5.17533C2.54199 17.015 1.66699 15.265 1.66699 13.5067V6.49002C1.66699 3.85669 2.54199 2.98169 5.17533 2.98169H10.442C13.0753 2.98169 13.9503 3.85669 13.9503 6.49002V13.5067C13.9503 16.14 13.067 17.015 10.442 17.015V17.015Z" stroke="#4A4674" stroke-width="1.5" stroke-linecap="round" stroke-linejoin="round"/>
<path opacity="0.4" d="M16.2647 14.25L13.948 12.625V7.36665L16.2647 5.74165C17.398 4.94999 18.3313 5.43332 18.3313 6.82499V13.175C18.3313 14.5667 17.398 15.05 16.2647 14.25V14.25ZM9.58301 9.16665C9.91453 9.16665 10.2325 9.03496 10.4669 8.80054C10.7013 8.56612 10.833 8.24818 10.833 7.91665C10.833 7.58513 10.7013 7.26719 10.4669 7.03277C10.2325 6.79835 9.91453 6.66665 9.58301 6.66665C9.25149 6.66665 8.93354 6.79835 8.69912 7.03277C8.4647 7.26719 8.33301 7.58513 8.33301 7.91665C8.33301 8.24818 8.4647 8.56612 8.69912 8.80054C8.93354 9.03496 9.25149 9.16665 9.58301 9.16665Z" stroke="#4A4674" stroke-width="1.5" stroke-linecap="round" stroke-linejoin="round"/>
</svg>
